<svg xmlns="http://www.w3.org/2000/svg" xmlns:xlink="http://www.w3.org/1999/xlink" width="32" height="32" viewBox="0 0 32 32">
  <defs>
    <clipPath id="clip-Agency_1">
      <rect width="32" height="32"/>
    </clipPath>
  </defs>
  <g id="Agency_1" data-name="Agency – 1" clip-path="url(#clip-Agency_1)">
    <rect width="32" height="32" fill="rgba(255,255,255,0)"/>
    <path id="corporate" d="M38.848,39.858h-13.5a.179.179,0,0,0-.12.042.084.084,0,0,0-.031.061v3.684c0,.22.716.5,1.676.772a39.139,39.139,0,0,0,5.268.976,37.431,37.431,0,0,0,5.212-.955C38.3,44.166,39,43.883,39,43.645V39.961a.084.084,0,0,0-.031-.061.179.179,0,0,0-.12-.042Zm-.432,4.9v4.231a.628.628,0,0,1-.626.626H26.41a.628.628,0,0,1-.626-.626V44.73a9.222,9.222,0,0,0,.915.308,39.959,39.959,0,0,0,5.4,1,.321.321,0,0,0,.075,0,38.238,38.238,0,0,0,5.357-.982,8.832,8.832,0,0,0,.88-.3ZM28.041,39.212v-.62a.951.951,0,0,1,.949-.949h5.989a.951.951,0,0,1,.949.949v.62H36.4v-.62a1.429,1.429,0,0,0-1.424-1.424H28.99a1.429,1.429,0,0,0-1.424,1.424v.62Zm4.387,4.509a.321.321,0,0,1,.116.247.585.585,0,0,1-.116.247s-.467.158-.657,0a.321.321,0,0,1,0-.494A.515.515,0,0,1,32.428,43.721Zm-.329-.765a1.135,1.135,0,0,1,.758.285.959.959,0,0,1,0,1.454,1.15,1.15,0,0,1-1.516,0,.959.959,0,0,1,0-1.454,1.135,1.135,0,0,1,.758-.285ZM23.544,29.471h-.429V29.9h.429Zm-.752-.647h1.075a.323.323,0,0,1,.323.323v1.075a.323.323,0,0,1-.323.323H22.793a.323.323,0,0,1-.323-.323V29.148a.323.323,0,0,1,.323-.323Zm3.4.647H25.76V29.9h.429Zm-.752-.647h1.075a.323.323,0,0,1,.323.323v1.075a.323.323,0,0,1-.323.323H25.437a.323.323,0,0,1-.323-.323V29.148A.323.323,0,0,1,25.437,28.825Zm-1.892,3.307h-.429v.429h.429Zm-.752-.647h1.075a.323.323,0,0,1,.323.323v1.075a.323.323,0,0,1-.323.323H22.793a.323.323,0,0,1-.323-.323V31.809a.323.323,0,0,1,.323-.323Zm3.4.647H25.76v.429h.429Zm-.752-.647h1.075a.323.323,0,0,1,.323.323v1.075a.323.323,0,0,1-.323.323H25.437a.323.323,0,0,1-.323-.323V31.809a.323.323,0,0,1,.323-.323Zm-1.892,3.307h-.429v.429h.429v-.429Zm-.752-.647h1.075a.323.323,0,0,1,.323.323v1.075a.323.323,0,0,1-.323.323H22.793a.323.323,0,0,1-.323-.323V34.469a.323.323,0,0,1,.323-.323Zm3.4.647H25.76v.429h.429v-.429Zm-.752-.647h1.075a.323.323,0,0,1,.323.323v1.075a.323.323,0,0,1-.323.324H25.437a.323.323,0,0,1-.323-.323V34.469a.323.323,0,0,1,.323-.323Zm-1.892,3.307h-.429v.429h.429Zm-.752-.647h1.075a.323.323,0,0,1,.323.323V38.2a.323.323,0,0,1-.323.323H22.793a.323.323,0,0,1-.323-.323V37.13a.323.323,0,0,1,.323-.323Zm3.4.647H25.76v.429h.429Zm-.752-.647h1.075a.323.323,0,0,1,.323.323V38.2a.323.323,0,0,1-.323.323H25.437a.323.323,0,0,1-.323-.323V37.13a.323.323,0,0,1,.323-.323Zm-1.892,3.307h-.429v.429h.429Zm-.752-.647h1.075a.323.323,0,0,1,.323.323v1.076a.323.323,0,0,1-.323.323H22.793a.323.323,0,0,1-.323-.323V39.79a.323.323,0,0,1,.323-.323Zm.887,9.471h1.458V45.605H23.68v3.332Zm-2.261,0v-21.2h6.468v9.1a2.09,2.09,0,0,0-.358.287,2.064,2.064,0,0,0-.608,1.462v.62H25.352a.824.824,0,0,0-.55.208.724.724,0,0,0-.248.541v3.684c0,.285.218.54.584.767v.546H23.356a.323.323,0,0,0-.323.323v3.656Zm-5.419,0h4.772V33.03L16,34.694V48.937Zm16.948-9.725H28.688v-.62a.3.3,0,0,1,.3-.3h3.957Zm0-2.691v-5.46H28.533v5.511a2.063,2.063,0,0,1,.457-.051Z" transform="translate(-11 -21.691)" fill="#131313" fill-rule="evenodd"/>
  </g>
</svg>
