<svg xmlns="http://www.w3.org/2000/svg" xmlns:xlink="http://www.w3.org/1999/xlink" width="52" height="52" viewBox="0 0 52 52">
  <defs>
    <clipPath id="clip-path">
      <rect id="Rectangle_4396" data-name="Rectangle 4396" width="52" height="52" transform="translate(15 106)" fill="#fff" stroke="#707070" stroke-width="1"/>
    </clipPath>
  </defs>
  <g id="Area_management_active" data-name="Area management active" transform="translate(-15 -106)" clip-path="url(#clip-path)">
    <g id="map_1_" data-name="map (1)" transform="translate(15.466 106)">
      <g id="Group_34121" data-name="Group 34121" transform="translate(5.742 38.121)">
        <g id="Group_34120" data-name="Group 34120">
          <path id="Path_7931" data-name="Path 7931" d="M42.478,34.412,21.92,23.527a1.649,1.649,0,0,0-1.7.1L4.5,34.51a1.634,1.634,0,0,0,.928,2.976H41.71a1.633,1.633,0,0,0,.768-3.074Z" transform="translate(-3.801 -23.338)" fill="#fff"/>
        </g>
      </g>
      <g id="Group_34123" data-name="Group 34123" transform="translate(27.513 23.046)">
        <g id="Group_34122" data-name="Group 34122">
          <path id="Path_7932" data-name="Path 7932" d="M40.915,37.155,36.08,15.388a1.636,1.636,0,0,0-2.525-.99L17.832,25.283A1.632,1.632,0,0,0,18,28.067L38.553,38.952a1.638,1.638,0,0,0,.764.193,1.612,1.612,0,0,0,.99-.336A1.635,1.635,0,0,0,40.915,37.155Z" transform="translate(-17.129 -14.109)" fill="#fff"/>
        </g>
      </g>
      <g id="Group_34125" data-name="Group 34125" transform="translate(1.043 19.601)">
        <g id="Group_34124" data-name="Group 34124">
          <path id="Path_7933" data-name="Path 7933" d="M39.8,13.147A1.637,1.637,0,0,0,38.243,12H23.333a68.179,68.179,0,0,1-8.373,11.44,4.9,4.9,0,0,1-7.292,0c-.637-.709-1.624-1.843-2.754-3.247L.962,37.984a1.632,1.632,0,0,0,1.594,1.986,1.617,1.617,0,0,0,.931-.291L39.171,14.973A1.627,1.627,0,0,0,39.8,13.147Z" transform="translate(-0.924 -12)" fill="#fff"/>
        </g>
      </g>
      <g id="Group_34127" data-name="Group 34127">
        <g id="Group_34126" data-name="Group 34126">
          <path id="Path_7934" data-name="Path 7934" d="M11.719,0A11.447,11.447,0,0,0,.285,11.434C.285,17.3,9.459,27.693,10.5,28.859a1.633,1.633,0,0,0,2.431,0C13.98,27.693,23.153,17.3,23.153,11.434A11.447,11.447,0,0,0,11.719,0Zm0,16.334a4.9,4.9,0,1,1,4.9-4.9A4.9,4.9,0,0,1,11.719,16.334Z" transform="translate(-0.285)" fill="#fff"/>
        </g>
      </g>
    </g>
  </g>
</svg>
