<svg xmlns="http://www.w3.org/2000/svg" xmlns:xlink="http://www.w3.org/1999/xlink" width="32" height="32" viewBox="0 0 32 32">
  <defs>
    <clipPath id="clip-Assets">
      <rect width="32" height="32"/>
    </clipPath>
  </defs>
  <g id="Assets" clip-path="url(#clip-Assets)">
    <rect width="32" height="32" fill="rgba(255,255,255,0)"/>
    <g id="digital-asset-management" transform="translate(5 -9.453)">
      <path id="Path_8374" data-name="Path 8374" d="M10.235,263.137a.834.834,0,0,0,1.189,0,.86.86,0,0,0,0-1.2L5.76,256.2a2.325,2.325,0,0,0-1.666-.7H0v7.906a11.318,11.318,0,0,1,3.947.96l4.7,2.086H19.809a.851.851,0,0,0,0-1.7h-9a2.158,2.158,0,0,1-1.521-.649l-4.605-4.665.952-.964Z" transform="translate(0 -229.345)" fill="#009688"/>
      <path id="Path_8375" data-name="Path 8375" d="M30,135.5h4.09v4.09H30Z" transform="translate(-28.637 -114.624)" fill="#009688"/>
      <path id="Path_8376" data-name="Path 8376" d="M150,135.5h1.363v1.363H150Z" transform="translate(-143.267 -114.614)" fill="#009688"/>
      <path id="Path_8377" data-name="Path 8377" d="M30,75.5h1.363v1.363H30Z" transform="translate(-28.637 -57.273)" fill="#009688"/>
      <path id="Path_8379" data-name="Path 8379" d="M120,15.5h4.09v4.09H120Z" transform="translate(-114.623 0)" fill="#009688"/>
      <circle id="Ellipse_301" data-name="Ellipse 301" cx="1.618" cy="1.618" r="1.618" transform="translate(14.635 23.993)" fill="#009688"/>
      <path id="Path_8381" data-name="Path 8381" d="M225.449,101.73l-1.189-.376a1.514,1.514,0,0,1-1.015-1.759l.228-1.262a6.807,6.807,0,0,0-2.709-1.556l-.92.841a1.514,1.514,0,0,1-2.031,0l-.979-.829a6.808,6.808,0,0,0-2.7,1.568l.269,1.218a1.514,1.514,0,0,1-1.015,1.759l-1.207.434a6.807,6.807,0,0,0,.007,3.124l1.189.376a1.514,1.514,0,0,1,1.015,1.759l-.228,1.262a6.808,6.808,0,0,0,2.709,1.556l.92-.841a1.514,1.514,0,0,1,2.031,0l.979.829a6.807,6.807,0,0,0,2.7-1.568l-.269-1.218a1.514,1.514,0,0,1,1.015-1.759l1.207-.434A6.808,6.808,0,0,0,225.449,101.73Zm-6.632,4.563a2.981,2.981,0,1,1,2.981-2.981A2.985,2.985,0,0,1,218.817,106.292Z" transform="translate(-202.634 -77.689)" fill="#009688"/>
    </g>
  </g>
</svg>
