<svg xmlns="http://www.w3.org/2000/svg" xmlns:xlink="http://www.w3.org/1999/xlink" width="32" height="32" viewBox="0 0 32 32">
  <defs>
    <clipPath id="clip-Attendance">
      <rect width="32" height="32"/>
    </clipPath>
  </defs>
  <g id="Attendance" clip-path="url(#clip-Attendance)">
    <rect width="32" height="32" fill="rgba(255,255,255,0)"/>
    <path id="perm_contact_calendar_FILL1_wght700_GRAD0_opsz48" d="M97.516-887.208a11.39,11.39,0,0,1,3.507-2.2,11.5,11.5,0,0,1,4.283-.776,11.758,11.758,0,0,1,4.27.75,11.349,11.349,0,0,1,3.52,2.168v-14.589H97.516Zm7.79-4.684a3.664,3.664,0,0,1-2.69-1.111,3.664,3.664,0,0,1-1.111-2.69,3.62,3.62,0,0,1,1.111-2.677,3.687,3.687,0,0,1,2.69-1.1,3.687,3.687,0,0,1,2.69,1.1,3.62,3.62,0,0,1,1.111,2.677A3.664,3.664,0,0,1,108-893,3.664,3.664,0,0,1,105.306-891.893Zm-7.79,8.673a2.426,2.426,0,0,1-1.781-.735A2.425,2.425,0,0,1,95-885.736v-16.115a2.465,2.465,0,0,1,.735-1.8,2.413,2.413,0,0,1,1.781-.743h1.5V-906h2.2v1.606H109.4V-906h2.2v1.606h1.5a2.451,2.451,0,0,1,1.8.743,2.451,2.451,0,0,1,.743,1.8v16.115a2.413,2.413,0,0,1-.743,1.781,2.465,2.465,0,0,1-1.8.735Z" transform="translate(-88.867 911.458)" fill="#009688"/>
  </g>
</svg>
