<svg xmlns="http://www.w3.org/2000/svg" xmlns:xlink="http://www.w3.org/1999/xlink" width="118" height="118.002" viewBox="0 0 118 118.002">
  <defs>
    <radialGradient id="radial-gradient" cx="0.5" cy="0.5" r="0.5" gradientUnits="objectBoundingBox">
      <stop offset="0" stop-color="#059488" stop-opacity="0.827"/>
      <stop offset="0.327" stop-color="#00887d" stop-opacity="0.749"/>
      <stop offset="0.33" stop-color="#00645c" stop-opacity="0.722"/>
      <stop offset="0.33" stop-color="#006159" stop-opacity="0.227"/>
      <stop offset="0.33" stop-color="#038e83" stop-opacity="0.788"/>
      <stop offset="0.331" stop-color="#00645c" stop-opacity="0.29"/>
      <stop offset="0.337" stop-color="#00554e" stop-opacity="0"/>
      <stop offset="0.359" stop-color="#00645c" stop-opacity="0"/>
      <stop offset="1" stop-color="#000807" stop-opacity="0"/>
      <stop offset="1" stop-color="#034a44" stop-opacity="0"/>
    </radialGradient>
  </defs>
  <g id="Camera_Orientation" data-name="Camera Orientation" transform="translate(-382.479 -149.309)">
    <path id="Path_8147" data-name="Path 8147" d="M43.191,0A43.191,43.191,0,1,1,0,43.191,43.191,43.191,0,0,1,43.191,0Z" transform="translate(500.479 192.501) rotate(120)" fill="url(#radial-gradient)"/>
    <g id="Group_6412" data-name="Group 6412" transform="translate(428.329 193.689)">
      <path id="Union_1" data-name="Union 1" d="M6.522,24.678H0V0H26.3V24.678H19.775l-6.627,5.979Z" fill="#059488" stroke="#059488" stroke-width="1"/>
      <g id="cctv" transform="translate(4.662 2.895)">
        <path id="Path_8132" data-name="Path 8132" d="M1.036,0H.453A.454.454,0,0,0,0,.453v5.18a.454.454,0,0,0,.453.453h.583A1.036,1.036,0,0,0,2.072,5.051V1.036A1.036,1.036,0,0,0,1.036,0Z" transform="translate(1.104 13.589)" fill="#fff"/>
        <path id="Path_8133" data-name="Path 8133" d="M12.38,3.738,2.4.106A1.748,1.748,0,0,0,.16,1.151l-.133.364A.454.454,0,0,0,.3,2.1l11.2,4.076a.454.454,0,0,0,.581-.271l.576-1.582A.453.453,0,0,0,12.38,3.738Z" transform="translate(4.873 4.782)" fill="#fff"/>
        <path id="Path_8134" data-name="Path 8134" d="M2.6,2.586H0V4.658H2.966a1.554,1.554,0,0,0,1.46-1.023L5.491.709,3.544,0Z" transform="translate(4.083 13.01)" fill="#fff"/>
        <path id="Path_8135" data-name="Path 8135" d="M.075,1.765A1.23,1.23,0,0,0,.81,3.341L7.443,5.755a.453.453,0,0,0,.581-.271L8.931,2.99.717,0Z" transform="translate(4.449 7.842)" fill="#fff"/>
        <path id="Path_8136" data-name="Path 8136" d="M0,2.185a1.491,1.491,0,0,0,1.785-.928l.288-.79L.8,0Z" transform="translate(13.437 11.141)" fill="#fff"/>
        <g id="Group_34517" data-name="Group 34517" transform="translate(0 0)">
          <path id="path4813" d="M0,3.284A3.284,3.284,0,0,1,3.284,0" transform="translate(2.781 2.385)" fill="none" stroke="#fff" stroke-linecap="round" stroke-linejoin="round" stroke-miterlimit="10" stroke-width="0.3"/>
          <g id="g4815" transform="translate(0 0.704) rotate(-7)">
            <path id="path4817" d="M0,5.076C0,2.273,2.587,0,5.778,0" transform="translate(0 0)" fill="none" stroke="#fff" stroke-linecap="round" stroke-linejoin="round" stroke-miterlimit="10" stroke-width="0.3"/>
          </g>
        </g>
      </g>
    </g>
  </g>
</svg>
