<svg xmlns="http://www.w3.org/2000/svg" xmlns:xlink="http://www.w3.org/1999/xlink" width="32" height="32" viewBox="0 0 32 32">
  <defs>
    <clipPath id="clip-Citizen_Grievance_1">
      <rect width="32" height="32"/>
    </clipPath>
  </defs>
  <g id="Citizen_Grievance_1" data-name="Citizen Grievance – 1" clip-path="url(#clip-Citizen_Grievance_1)">
    <rect width="32" height="32" fill="rgba(255,255,255,0)"/>
    <g id="group" transform="translate(4.211 -32.952)">
      <g id="Group_34261" data-name="Group 34261" transform="translate(19.199 50.137)">
        <g id="Group_34260" data-name="Group 34260">
          <path id="Path_7687" data-name="Path 7687" d="M400.4,273.32h-1.908a4.961,4.961,0,0,1,.3,1.706v7.21a2.126,2.126,0,0,1-.122.712h3.154a2.139,2.139,0,0,0,2.137-2.137v-3.931A3.565,3.565,0,0,0,400.4,273.32Z" transform="translate(-398.494 -273.32)" fill="#131313"/>
        </g>
      </g>
      <g id="Group_34263" data-name="Group 34263" transform="translate(0 50.137)">
        <g id="Group_34262" data-name="Group 34262">
          <path id="Path_7688" data-name="Path 7688" d="M5.168,275.027a4.962,4.962,0,0,1,.3-1.706H3.561A3.565,3.565,0,0,0,0,276.882v3.931a2.139,2.139,0,0,0,2.137,2.137H5.29a2.126,2.126,0,0,1-.123-.712Z" transform="translate(0 -273.321)" fill="#131313"/>
        </g>
      </g>
      <g id="Group_34265" data-name="Group 34265" transform="translate(6.592 48.282)">
        <g id="Group_34264" data-name="Group 34264">
          <path id="Path_7689" data-name="Path 7689" d="M144.751,234.815H140.39a3.565,3.565,0,0,0-3.561,3.561v7.21a.712.712,0,0,0,.712.712H147.6a.712.712,0,0,0,.712-.712v-7.21A3.565,3.565,0,0,0,144.751,234.815Z" transform="translate(-136.829 -234.815)" fill="#131313"/>
        </g>
      </g>
      <g id="Group_34267" data-name="Group 34267" transform="translate(8.051 38.84)">
        <g id="Group_34266" data-name="Group 34266" transform="translate(0 0)">
          <path id="Path_7690" data-name="Path 7690" d="M171.4,38.84a4.282,4.282,0,1,0,4.282,4.283A4.287,4.287,0,0,0,171.4,38.84Z" transform="translate(-167.114 -38.84)" fill="#131313"/>
        </g>
      </g>
      <g id="Group_34269" data-name="Group 34269" transform="translate(1.611 42.832)">
        <g id="Group_34268" data-name="Group 34268" transform="translate(0 0)">
          <path id="Path_7691" data-name="Path 7691" d="M36.646,121.689a3.2,3.2,0,1,0,3.2,3.2A3.206,3.206,0,0,0,36.646,121.689Z" transform="translate(-33.443 -121.689)" fill="#131313"/>
        </g>
      </g>
      <g id="Group_34271" data-name="Group 34271" transform="translate(16.651 42.832)">
        <g id="Group_34270" data-name="Group 34270" transform="translate(0 0)">
          <path id="Path_7692" data-name="Path 7692" d="M348.81,121.689a3.2,3.2,0,1,0,3.2,3.2A3.206,3.206,0,0,0,348.81,121.689Z" transform="translate(-345.607 -121.689)" fill="#131313"/>
        </g>
      </g>
    </g>
  </g>
</svg>
