<svg xmlns="http://www.w3.org/2000/svg" xmlns:xlink="http://www.w3.org/1999/xlink" width="53" height="53" viewBox="0 0 53 53">
  <defs>
    <clipPath id="clip-path">
      <rect id="Rectangle_4393" data-name="Rectangle 4393" width="53" height="53" transform="translate(21 545)" fill="#bfbfbf" stroke="#707070" stroke-width="1"/>
    </clipPath>
  </defs>
  <g id="Configuration_inactive" data-name="Configuration inactive" transform="translate(-21 -545)" clip-path="url(#clip-path)">
    <g id="settings" transform="translate(21 545)">
      <g id="Group_34110" data-name="Group 34110">
        <g id="Group_34109" data-name="Group 34109">
          <path id="Path_7921" data-name="Path 7921" d="M47.17,21.995a22.487,22.487,0,0,0-2.915-6.89L46.9,9.54l-3.71-3.71L37.63,8.48A20.443,20.443,0,0,0,31,5.83L29.15,0h-5.3L21.73,5.83a21.083,21.083,0,0,0-6.625,2.915L9.54,6.095,5.83,9.54,8.48,15.1A20.443,20.443,0,0,0,5.83,21.73L0,23.85v5.3l5.83,2.12A24.74,24.74,0,0,0,8.48,37.9L5.83,43.46l3.71,3.71L15.1,44.52a21.083,21.083,0,0,0,6.625,2.915L23.85,53h5.3l2.12-5.83c.8-.265,1.855-.53,2.65-.795l-4.24-4.24A15.925,15.925,0,1,1,26.5,10.6c9.805,0,17.225,8.745,15.635,18.02l4.505,4.505A6.237,6.237,0,0,0,47.17,31L53,29.15v-5.3Z" fill="#bfbfbf"/>
        </g>
      </g>
      <g id="Group_34112" data-name="Group 34112" transform="translate(15.99 15.501)">
        <g id="Group_34111" data-name="Group 34111">
          <path id="Path_7922" data-name="Path 7922" d="M45.6,39.968,29.969,24.333A10.613,10.613,0,0,0,17.514,9.758l4.77,4.77a5.247,5.247,0,0,1-7.42,7.42l-4.77-4.505c-2.385,7.42,5.3,15.9,14.045,12.455L39.774,45.533a3.843,3.843,0,0,0,5.565,0A4.086,4.086,0,0,0,45.6,39.968Z" transform="translate(-9.654 -9.359)" fill="#bfbfbf"/>
        </g>
      </g>
    </g>
  </g>
</svg>
