<svg xmlns="http://www.w3.org/2000/svg" xmlns:xlink="http://www.w3.org/1999/xlink" width="32" height="32" viewBox="0 0 32 32">
  <defs>
    <clipPath id="clip-path">
      <rect id="Rectangle_4466" data-name="Rectangle 4466" width="23" height="23" transform="translate(-18559 50)" fill="#131313" stroke="#707070" stroke-width="1"/>
    </clipPath>
    <clipPath id="clip-Critical_Log_1">
      <rect width="32" height="32"/>
    </clipPath>
  </defs>
  <g id="Critical_Log_1" data-name="Critical Log – 1" clip-path="url(#clip-Critical_Log_1)">
    <rect width="32" height="32" fill="rgba(255,255,255,0)"/>
    <g id="Mask_Group_6152" data-name="Mask Group 6152" transform="translate(18564 -45)" clip-path="url(#clip-path)">
      <g id="ecg-monitor" transform="translate(-18559 50.523)">
        <path id="Path_8415" data-name="Path 8415" d="M.727,15.364v1.777A1.361,1.361,0,0,0,2.092,18.5H22.358a1.364,1.364,0,0,0,1.37-1.354V15.364ZM11.7,17.455H2.3a.523.523,0,1,1,0-1.045H11.7a.523.523,0,1,1,0,1.045Zm9.409,0a.523.523,0,1,1,.523-.523A.524.524,0,0,1,21.114,17.455ZM22.687.727H1.773A1.049,1.049,0,0,0,.727,1.773V14.841h23V1.767A1.04,1.04,0,0,0,22.687.727Zm-5.755,9.932H15.1l-1.411,1.882a.521.521,0,0,1-.538.193.507.507,0,0,1-.392-.418L11.637,5.96l-.993,4.3a.518.518,0,0,1-.47.4.54.54,0,0,1-.528-.34L8.7,7.81,7.512,13.383A.526.526,0,0,1,7,13.8H6.99a.52.52,0,0,1-.5-.429L5.766,9.4,5.4,10.33a.523.523,0,0,1-.486.329H2.3a.523.523,0,0,1,0-1.045H4.554l.915-2.284a.521.521,0,0,1,1,.1l.575,3.152L8.056,5.845a.534.534,0,0,1,.476-.413.524.524,0,0,1,.528.34l.957,2.556L11.2,3.221a.52.52,0,0,1,1.019.031l1.359,7.695.847-1.124a.53.53,0,0,1,.418-.209h2.091a.523.523,0,0,1,0,1.045Zm2.091-1.568a.523.523,0,1,1,.523-.523A.524.524,0,0,1,19.023,9.091Zm0-1.568A.523.523,0,1,1,19.545,7,.524.524,0,0,1,19.023,7.523ZM20.716,2.41c.91-.988,2.535.93,0,2.415C18.186,3.341,19.812,1.422,20.716,2.41Zm1.443,6.68H20.591a.523.523,0,0,1,0-1.045h1.568a.523.523,0,1,1,0,1.045Zm0-1.568H20.591a.523.523,0,0,1,0-1.045h1.568a.523.523,0,1,1,0,1.045ZM9.614,19.023h5.227v1.045H9.614ZM8.291,20.591h7.873a2.075,2.075,0,0,1,2.075,2.075v.016H6.216v-.016a2.075,2.075,0,0,1,2.075-2.075Z" transform="translate(-0.727 -0.727)" fill="#131313"/>
      </g>
    </g>
  </g>
</svg>
