<svg xmlns="http://www.w3.org/2000/svg" xmlns:xlink="http://www.w3.org/1999/xlink" width="32" height="32" viewBox="0 0 32 32">
  <defs>
    <clipPath id="clip-Device_Configuration">
      <rect width="32" height="32"/>
    </clipPath>
  </defs>
  <g id="Device_Configuration" data-name="Device Configuration" clip-path="url(#clip-Device_Configuration)">
    <rect width="32" height="32" fill="rgba(255,255,255,0)"/>
    <g id="gear" transform="translate(-78.066 5.047)">
      <path id="Path_8399" data-name="Path 8399" d="M99.228,129.6H98.105a.929.929,0,0,1-.866-.6,4.536,4.536,0,0,1-.623-.258.929.929,0,0,1-1.034-.191l-.794-.794a.929.929,0,0,1-.191-1.034,4.536,4.536,0,0,1-.258-.623.931.931,0,0,1-.585-.719H87.066v11.733h13.521v-8.309a4.544,4.544,0,0,1-.492.2A.929.929,0,0,1,99.228,129.6Z" transform="translate(0 -119.748)" fill="#009688"/>
      <path id="Path_8400" data-name="Path 8400" d="M93.748,4.286a.93.93,0,0,1,.593-.788,4.535,4.535,0,0,1,.258-.623A.929.929,0,0,1,94.79,1.84l.794-.794A.93.93,0,0,1,96.619.854,4.538,4.538,0,0,1,97.242.6a.929.929,0,0,1,.867-.6h-9.02a2.024,2.024,0,0,0-2.022,2.022V4.286Z" transform="translate(0)" fill="#009688"/>
      <path id="Path_8401" data-name="Path 8401" d="M87.066,416.617v2.264a2.024,2.024,0,0,0,2.021,2.022h9.478a2.024,2.024,0,0,0,2.021-2.022v-2.264Zm6.048,1.116h1.425a.674.674,0,0,1,0,1.348H93.114a.674.674,0,0,1,0-1.348Z" transform="translate(0 -397.903)" fill="#009688"/>
      <path id="Path_8402" data-name="Path 8402" d="M272.378,32.749a3.189,3.189,0,0,0-.322-.777.926.926,0,0,1-.078-.752l-.342-.342a.926.926,0,0,1-.752-.079,3.187,3.187,0,0,0-.777-.322.928.928,0,0,1-.588-.476h-.484a.928.928,0,0,1-.588.476,3.188,3.188,0,0,0-.777.322.926.926,0,0,1-.752.078l-.342.342a.926.926,0,0,1-.078.752,3.184,3.184,0,0,0-.322.777.928.928,0,0,1-.476.588v.484a.928.928,0,0,1,.476.588,3.19,3.19,0,0,0,.322.777.926.926,0,0,1,.078.752l.342.342a.926.926,0,0,1,.752.078,3.186,3.186,0,0,0,.777.322.928.928,0,0,1,.588.476h.484a.928.928,0,0,1,.588-.476,3.189,3.189,0,0,0,.777-.322.926.926,0,0,1,.752-.078l.342-.342a.926.926,0,0,1,.078-.752,3.188,3.188,0,0,0,.322-.777.928.928,0,0,1,.476-.588v-.484A.928.928,0,0,1,272.378,32.749ZM269.3,34.815a1.236,1.236,0,1,1,1.236-1.236A1.236,1.236,0,0,1,269.3,34.815Z" transform="translate(-170.61 -28.653)" fill="#009688"/>
    </g>
  </g>
</svg>
