<svg xmlns="http://www.w3.org/2000/svg" xmlns:xlink="http://www.w3.org/1999/xlink" width="217.552" height="217.552" viewBox="0 0 217.552 217.552">
  <defs>
    <clipPath id="clip-path">
      <rect id="Rectangle_4473" data-name="Rectangle 4473" width="108.682" height="108.682" transform="translate(1744 5406)" fill="#bfbfbf" stroke="#707070" stroke-width="1"/>
    </clipPath>
  </defs>
  <g id="ECB_inactive_map_view" data-name="ECB inactive map view" transform="translate(-1518.712 -291.894)">
    <circle id="Ellipse_331" data-name="Ellipse 331" cx="102.072" cy="102.072" r="102.072" transform="translate(1525.416 298.598)" fill="#bfbfbf"/>
    <path id="Path_8404" data-name="Path 8404" d="M83.277,0A83.277,83.277,0,1,1,0,83.277,83.277,83.277,0,0,1,83.277,0Z" transform="translate(1544.212 317.393)" fill="#404040"/>
    <g id="Mask_Group_6194" data-name="Mask Group 6194" transform="translate(-170.853 -5059.671)" clip-path="url(#clip-path)">
      <g id="sos" transform="translate(1744 5411.783)">
        <path id="Path_7860" data-name="Path 7860" d="M97.412,155.194a18.951,18.951,0,0,0,18.91-18.91,18.364,18.364,0,0,0-.26-3.11,18.9,18.9,0,0,0-36.67-2.539,48.152,48.152,0,0,1-26.5-26.474A18.91,18.91,0,1,0,28.332,86.114,69.091,69.091,0,0,0,97.4,155.194Zm10.151-79.946h-3.278a.876.876,0,0,0-.869.89v7.968a.876.876,0,0,0,.869.89h3.261a.876.876,0,0,0,.869-.89V76.138a.876.876,0,0,0-.852-.89Z" transform="translate(-28.332 -58.077)" fill="#bfbfbf"/>
        <path id="Path_7861" data-name="Path 7861" d="M203.7,43.4H157.637a8.071,8.071,0,0,0-8.044,8.064V92.942a2.22,2.22,0,0,0,2.173,2.173,2.179,2.179,0,0,0,1.327-.455l9.3-7.151h41.3a8.074,8.074,0,0,0,8.064-8.064V51.469A8.074,8.074,0,0,0,203.7,43.4Zm-40.95,19.888h4.889a4.691,4.691,0,0,1,4.694,4.694v1.978a4.708,4.708,0,0,1-4.694,4.711h-4.889a4.711,4.711,0,0,1-4.718-4.718,2.174,2.174,0,0,1,4.349,0,.38.38,0,0,0,.369.369h4.889a.363.363,0,0,0,.342-.369V67.98a.342.342,0,0,0-.342-.342h-4.889a4.711,4.711,0,0,1-4.718-4.718V60.943a4.711,4.711,0,0,1,4.718-4.718h4.889a4.708,4.708,0,0,1,4.694,4.718,2.174,2.174,0,1,1-4.348,0,.363.363,0,0,0-.342-.37h-4.893a.38.38,0,0,0-.369.37V62.92a.38.38,0,0,0,.37.37Zm24.781,6.158a5.238,5.238,0,0,1-5.218,5.224h-3.26a5.238,5.238,0,0,1-5.218-5.238V61.469a5.238,5.238,0,0,1,5.218-5.238h3.26a5.238,5.238,0,0,1,5.218,5.238Zm6.2-6.158h4.889a4.691,4.691,0,0,1,4.7,4.7v1.978a4.708,4.708,0,0,1-4.7,4.708h-4.882a4.711,4.711,0,0,1-4.718-4.718,2.174,2.174,0,1,1,4.349,0,.38.38,0,0,0,.37.369h4.889a.363.363,0,0,0,.342-.369V67.98a.342.342,0,0,0-.342-.342h-4.889a4.711,4.711,0,0,1-4.718-4.718V60.943a4.711,4.711,0,0,1,4.718-4.715h4.889a4.708,4.708,0,0,1,4.691,4.718,2.174,2.174,0,1,1-4.348,0,.363.363,0,0,0-.342-.37h-4.889a.38.38,0,0,0-.37.37v1.978a.38.38,0,0,0,.37.37Z" transform="translate(-103.078 -43.405)" fill="#bfbfbf"/>
      </g>
    </g>
  </g>
</svg>
