<svg xmlns="http://www.w3.org/2000/svg" xmlns:xlink="http://www.w3.org/1999/xlink" width="180" height="180" viewBox="0 0 180 180">
  <defs>
    <clipPath id="clip-path">
      <rect id="Rectangle_4456" data-name="Rectangle 4456" width="180" height="180" transform="translate(1744 5406)" fill="#bfbfbf" stroke="#707070" stroke-width="1"/>
    </clipPath>
  </defs>
  <g id="ECB_Inctive" data-name="ECB Inctive" transform="translate(-1744 -5406)" clip-path="url(#clip-path)">
    <g id="sos" transform="translate(1715.668 5372.172)">
      <path id="Path_7860" data-name="Path 7860" d="M142.743,212.933a31.386,31.386,0,0,0,31.318-31.318,30.417,30.417,0,0,0-.431-5.151,31.3,31.3,0,0,0-60.733-4.2,79.749,79.749,0,0,1-43.887-43.847,31.318,31.318,0,1,0-40.679-29.89A114.429,114.429,0,0,0,142.721,212.933ZM159.556,80.526h-5.428A1.451,1.451,0,0,0,152.688,82V95.2a1.451,1.451,0,0,0,1.439,1.473h5.4a1.451,1.451,0,0,0,1.439-1.473V82a1.451,1.451,0,0,0-1.411-1.473Z" transform="translate(0 -8.681)" fill="#bfbfbf"/>
      <path id="Path_7861" data-name="Path 7861" d="M239.2,43.4H162.916a13.367,13.367,0,0,0-13.322,13.356v68.689a3.678,3.678,0,0,0,3.6,3.6,3.61,3.61,0,0,0,2.2-.754L170.8,116.451h68.4A13.373,13.373,0,0,0,252.553,103.1V56.761A13.373,13.373,0,0,0,239.2,43.4ZM171.376,76.344h8.1a7.769,7.769,0,0,1,7.774,7.774v3.275a7.8,7.8,0,0,1-7.774,7.8h-8.1a7.8,7.8,0,0,1-7.814-7.814,3.6,3.6,0,0,1,7.2,0,.629.629,0,0,0,.612.612h8.1a.6.6,0,0,0,.567-.612V84.107a.567.567,0,0,0-.567-.567h-8.1a7.8,7.8,0,0,1-7.814-7.814V72.451a7.8,7.8,0,0,1,7.814-7.814h8.1a7.8,7.8,0,0,1,7.774,7.814,3.6,3.6,0,1,1-7.2,0,.6.6,0,0,0-.567-.612h-8.1a.629.629,0,0,0-.612.612v3.275a.629.629,0,0,0,.612.612Zm41.042,10.2a8.675,8.675,0,0,1-8.641,8.653h-5.4a8.675,8.675,0,0,1-8.641-8.675v-13.2a8.675,8.675,0,0,1,8.641-8.675h5.4a8.675,8.675,0,0,1,8.641,8.675Zm10.262-10.2h8.1a7.769,7.769,0,0,1,7.78,7.78V87.4a7.8,7.8,0,0,1-7.78,7.8h-8.086a7.8,7.8,0,0,1-7.814-7.814,3.6,3.6,0,1,1,7.2,0,.629.629,0,0,0,.612.612h8.1a.6.6,0,0,0,.567-.612V84.107a.567.567,0,0,0-.567-.567h-8.1a7.8,7.8,0,0,1-7.814-7.814V72.451a7.8,7.8,0,0,1,7.814-7.808h8.1a7.8,7.8,0,0,1,7.769,7.814,3.6,3.6,0,1,1-7.2,0,.6.6,0,0,0-.567-.612h-8.1a.629.629,0,0,0-.612.612v3.275a.629.629,0,0,0,.612.612Z" transform="translate(-44.221)" fill="#bfbfbf"/>
    </g>
  </g>
</svg>
