<svg xmlns="http://www.w3.org/2000/svg" xmlns:xlink="http://www.w3.org/1999/xlink" width="52" height="52" viewBox="0 0 52 52">
  <defs>
    <clipPath id="clip-path">
      <rect id="Rectangle_16833" data-name="Rectangle 16833" width="52" height="52" transform="translate(17 239)" fill="#fff" stroke="#707070" stroke-width="1"/>
    </clipPath>
  </defs>
  <g id="Fleet_management_active" data-name="Fleet management active" transform="translate(-17 -239)" clip-path="url(#clip-path)">
    <g id="bus_4_" data-name="bus (4)" transform="translate(17 239)">
      <g id="Group_34488" data-name="Group 34488" transform="translate(0 15.241)">
        <g id="Group_34487" data-name="Group 34487">
          <path id="Path_8113" data-name="Path 8113" d="M5.443,18.043V11.511a1.089,1.089,0,0,0,0-2.177A5.45,5.45,0,0,0,0,14.777v2.177A3.27,3.27,0,0,0,3.266,20.22H5.443a1.089,1.089,0,1,0,0-2.177Z" transform="translate(0 -9.333)" fill="#fff"/>
        </g>
      </g>
      <g id="Group_34490" data-name="Group 34490" transform="translate(45.724 15.241)">
        <g id="Group_34489" data-name="Group 34489">
          <path id="Path_8114" data-name="Path 8114" d="M29.089,9.333a1.089,1.089,0,0,0,0,2.177v6.532a1.089,1.089,0,1,0,0,2.177h2.177a3.27,3.27,0,0,0,3.266-3.266V14.777A5.45,5.45,0,0,0,29.089,9.333Z" transform="translate(-28 -9.333)" fill="#fff"/>
        </g>
      </g>
      <g id="Group_34492" data-name="Group 34492" transform="translate(8.709 45.724)">
        <g id="Group_34491" data-name="Group 34491">
          <path id="Path_8115" data-name="Path 8115" d="M15.131,28a1.089,1.089,0,0,0-1.089,1.089H7.511a1.089,1.089,0,0,0-2.177,0v2.177A3.27,3.27,0,0,0,8.6,34.532h4.355a3.27,3.27,0,0,0,3.266-3.266V29.089A1.089,1.089,0,0,0,15.131,28Z" transform="translate(-5.333 -28)" fill="#fff"/>
        </g>
      </g>
      <g id="Group_34494" data-name="Group 34494" transform="translate(32.66 45.724)">
        <g id="Group_34493" data-name="Group 34493">
          <path id="Path_8116" data-name="Path 8116" d="M29.8,28a1.089,1.089,0,0,0-1.089,1.089H22.177a1.089,1.089,0,1,0-2.177,0v2.177a3.27,3.27,0,0,0,3.266,3.266h4.355a3.27,3.27,0,0,0,3.266-3.266V29.089A1.089,1.089,0,0,0,29.8,28Z" transform="translate(-20 -28)" fill="#fff"/>
        </g>
      </g>
      <g id="Group_34496" data-name="Group 34496" transform="translate(4.355)">
        <g id="Group_34495" data-name="Group 34495">
          <path id="Path_8117" data-name="Path 8117" d="M40.77,0H8.11A5.449,5.449,0,0,0,2.667,5.443V42.458A5.45,5.45,0,0,0,8.11,47.9H40.77a5.449,5.449,0,0,0,5.443-5.443V5.443A5.449,5.449,0,0,0,40.77,0ZM12.465,4.355H36.415a3.266,3.266,0,1,1,0,6.532H12.465a3.266,3.266,0,1,1,0-6.532Zm0,37.015A3.266,3.266,0,1,1,15.731,38.1,3.27,3.27,0,0,1,12.465,41.369Zm23.951,0A3.266,3.266,0,1,1,39.681,38.1,3.27,3.27,0,0,1,36.415,41.369Zm5.443-14.153a3.27,3.27,0,0,1-3.266,3.266H10.287a3.27,3.27,0,0,1-3.266-3.266V16.33a3.27,3.27,0,0,1,3.266-3.266H38.592a3.27,3.27,0,0,1,3.266,3.266V27.217Z" transform="translate(-2.667)" fill="#fff"/>
        </g>
      </g>
    </g>
  </g>
</svg>
