<svg xmlns="http://www.w3.org/2000/svg" xmlns:xlink="http://www.w3.org/1999/xlink" width="217.552" height="217.552" viewBox="0 0 217.552 217.552">
  <defs>
    <clipPath id="clip-path">
      <rect id="Rectangle_4462" data-name="Rectangle 4462" width="107" height="107" transform="translate(-9202 5112)" fill="#fff" stroke="#707070" stroke-width="1"/>
    </clipPath>
  </defs>
  <g id="Gas_Meter_Active_map_view" data-name="Gas Meter Active map view" transform="translate(-1518.712 -291.894)">
    <circle id="Ellipse_331" data-name="Ellipse 331" cx="102.072" cy="102.072" r="102.072" transform="translate(1525.416 298.598)" fill="#009688"/>
    <path id="Path_8404" data-name="Path 8404" d="M83.277,0A83.277,83.277,0,1,1,0,83.277,83.277,83.277,0,0,1,83.277,0Z" transform="translate(1544.212 317.393)" fill="#404040"/>
    <g id="Gas_Meter_Active" data-name="Gas Meter Active" transform="translate(10775.988 -4765.256)" clip-path="url(#clip-path)">
      <g id="gas-bottle" transform="translate(-9179.856 5113.211)">
        <path id="Path_8477" data-name="Path 8477" d="M124.888,34.133H114.422a3.5,3.5,0,0,0-3.489,3.489V41.11a3.5,3.5,0,0,0,3.489,3.489h10.466a3.5,3.5,0,0,0,3.489-3.489V37.621A3.5,3.5,0,0,0,124.888,34.133Zm0,6.977H114.422V37.621h10.466Zm0,0" transform="translate(-88.258 -27.156)" fill="#fff"/>
        <path id="Path_8478" data-name="Path 8478" d="M41.863,0H20.931A5.249,5.249,0,0,0,15.7,5.233V21.246A19.214,19.214,0,0,0,0,40.119V78.494A19.187,19.187,0,0,0,8.722,94.576v3.105a6.977,6.977,0,0,0,6.977,6.977H47.1a6.978,6.978,0,0,0,6.978-6.977V94.576a19.186,19.186,0,0,0,8.721-16.082V40.119A19.214,19.214,0,0,0,47.1,21.246V5.233A5.248,5.248,0,0,0,41.863,0ZM19.187,5.233a1.744,1.744,0,0,1,1.744-1.745H41.863a1.744,1.744,0,0,1,1.744,1.745v15.7H19.187Zm1.1,54.562a1.918,1.918,0,0,1,2.25-.192,1.831,1.831,0,0,1,.733,2.145,2.512,2.512,0,0,0-.122,1.867c.1.157.488.331,1.273.331.541,0,1.047,0,1.047-1.57a7.022,7.022,0,0,0-1.238-2.808,12.549,12.549,0,0,1-2.25-6.454c0-4.8,2.93-12.228,9.21-12.978a1.938,1.938,0,0,1,1.361,3.506,3.041,3.041,0,0,0-1.5,2.2c0,2.616,2.7,4.8,5.843,7.326,4.553,3.645,10.2,8.2,10.2,16.483,0,7.728-5.861,12.333-15.7,12.333s-15.7-4.6-15.7-12.333A14.216,14.216,0,0,1,20.286,59.795ZM47.166,97.35c.279-.053.576-.122.872-.192s.576-.14.854-.227a7.048,7.048,0,0,0,.855-.262c.279-.087.558-.192.837-.3v1.309A3.5,3.5,0,0,1,47.1,101.17H15.7a3.5,3.5,0,0,1-3.489-3.489V96.372c.279.105.558.21.837.3a7.092,7.092,0,0,0,.855.262c.279.087.576.157.854.227s.593.139.872.192a18.743,18.743,0,0,0,3.559.331h24.42A18.737,18.737,0,0,0,47.166,97.35Zm0,0" fill="#fff"/>
        <path id="Path_8479" data-name="Path 8479" d="M106.078,258.878c4.552,0,12.21-1.151,12.21-8.844,0-6.611-4.518-10.256-8.9-13.763-3.524-2.843-6.872-5.529-7.134-9.541a12.737,12.737,0,0,0-2.11,6.768,9.388,9.388,0,0,0,1.762,4.675,9.2,9.2,0,0,1,1.726,4.587,4.458,4.458,0,0,1-4.535,5.058,4.719,4.719,0,0,1-4.116-1.779.383.383,0,0,0-.069-.087,9.052,9.052,0,0,0-1.047,4.081C93.867,257.727,101.525,258.878,106.078,258.878Zm0,0" transform="translate(-74.68 -180.384)" fill="#fff"/>
      </g>
    </g>
  </g>
</svg>
