<svg xmlns="http://www.w3.org/2000/svg" xmlns:xlink="http://www.w3.org/1999/xlink" width="180" height="180" viewBox="0 0 180 180">
  <defs>
    <clipPath id="clip-path">
      <rect id="Rectangle_4455" data-name="Rectangle 4455" width="180" height="180" transform="translate(2390 4883)" fill="#bfbfbf" stroke="#707070" stroke-width="1"/>
    </clipPath>
  </defs>
  <g id="Irrigation_Inactive_" data-name="Irrigation Inactive " transform="translate(-2390 -4883)" clip-path="url(#clip-path)">
    <g id="watering-sprayer_1_" data-name="watering-sprayer (1)" transform="translate(2380.689 4873.689)">
      <path id="Path_8423" data-name="Path 8423" d="M111.724,40.345H86.9a9.3,9.3,0,0,0-9.31,9.31V74.483a9.342,9.342,0,0,0,6.207,8.752v28.49h31.034V83.234a9.342,9.342,0,0,0,6.207-8.752V49.655A9.3,9.3,0,0,0,111.724,40.345Zm3.1,34.138a3.073,3.073,0,0,1-3.1,3.1H86.9a3.073,3.073,0,0,1-3.1-3.1V49.655a3.073,3.073,0,0,1,3.1-3.1h24.828a3.073,3.073,0,0,1,3.1,3.1Z" fill="#bfbfbf"/>
      <path id="Path_8424" data-name="Path 8424" d="M90,117.931h18.621v24.828H90Z" fill="#bfbfbf"/>
      <path id="Path_8425" data-name="Path 8425" d="M176.9,173.793a3.073,3.073,0,0,1-3.1,3.1H24.828a3.1,3.1,0,1,1,0-6.207h3.414a15.519,15.519,0,0,1,15.207-12.414H71.379v-9.31h55.862v9.31h27.931a15.519,15.519,0,0,1,15.207,12.414h3.414A3.073,3.073,0,0,1,176.9,173.793Z" fill="#bfbfbf"/>
      <path id="Path_8426" data-name="Path 8426" d="M21.724,62.069a3.1,3.1,0,0,0-3.1-3.1H12.414a3.1,3.1,0,1,0,0,6.207h6.207A3.1,3.1,0,0,0,21.724,62.069Z" fill="#bfbfbf"/>
      <path id="Path_8427" data-name="Path 8427" d="M34.138,65.172h6.207a3.1,3.1,0,0,0,0-6.207H34.138a3.1,3.1,0,0,0,0,6.207Z" fill="#bfbfbf"/>
      <path id="Path_8428" data-name="Path 8428" d="M55.862,65.172h6.207a3.1,3.1,0,0,0,0-6.207H55.862a3.1,3.1,0,1,0,0,6.207Z" fill="#bfbfbf"/>
      <path id="Path_8429" data-name="Path 8429" d="M21.654,27.431l5.207,3.379A3.1,3.1,0,0,0,30.237,25.6l-5.207-3.379a3.1,3.1,0,1,0-3.376,5.207Z" fill="#bfbfbf"/>
      <path id="Path_8430" data-name="Path 8430" d="M39.908,39.287l5.219,3.388a3.1,3.1,0,1,0,3.382-5.207L43.291,34.08a3.1,3.1,0,1,0-3.382,5.207Z" fill="#bfbfbf"/>
      <path id="Path_8431" data-name="Path 8431" d="M58.178,51.149l5.2,3.382a3.1,3.1,0,0,0,3.382-5.207l-5.2-3.382a3.1,3.1,0,1,0-3.382,5.207Z" fill="#bfbfbf"/>
      <path id="Path_8432" data-name="Path 8432" d="M25.031,101.914l5.207-3.379a3.1,3.1,0,0,0-3.376-5.207l-5.207,3.379a3.1,3.1,0,1,0,3.376,5.207Z" fill="#bfbfbf"/>
      <path id="Path_8433" data-name="Path 8433" d="M45.127,81.462l-5.219,3.388a3.1,3.1,0,0,0,3.382,5.207l5.219-3.388a3.1,3.1,0,0,0-3.382-5.207Z" fill="#bfbfbf"/>
      <path id="Path_8434" data-name="Path 8434" d="M63.381,69.606l-5.2,3.382A3.1,3.1,0,0,0,61.56,78.2l5.2-3.382a3.1,3.1,0,0,0-3.382-5.207Z" fill="#bfbfbf"/>
      <path id="Path_8435" data-name="Path 8435" d="M186.207,58.966H180a3.1,3.1,0,0,0,0,6.207h6.207a3.1,3.1,0,0,0,0-6.207Z" fill="#bfbfbf"/>
      <path id="Path_8436" data-name="Path 8436" d="M155.172,62.069a3.1,3.1,0,0,0,3.1,3.1h6.207a3.1,3.1,0,1,0,0-6.207h-6.207A3.1,3.1,0,0,0,155.172,62.069Z" fill="#bfbfbf"/>
      <path id="Path_8437" data-name="Path 8437" d="M133.448,62.069a3.1,3.1,0,0,0,3.1,3.1h6.207a3.1,3.1,0,1,0,0-6.207h-6.207A3.1,3.1,0,0,0,133.448,62.069Z" fill="#bfbfbf"/>
      <path id="Path_8438" data-name="Path 8438" d="M170.074,31.31a3.076,3.076,0,0,0,1.685-.5l5.207-3.379a3.1,3.1,0,1,0-3.376-5.207L168.383,25.6a3.1,3.1,0,0,0,1.691,5.707Z" fill="#bfbfbf"/>
      <path id="Path_8439" data-name="Path 8439" d="M151.805,43.176a3.093,3.093,0,0,0,1.688-.5l5.219-3.388a3.1,3.1,0,0,0-3.382-5.207l-5.219,3.388a3.1,3.1,0,0,0,1.694,5.707Z" fill="#bfbfbf"/>
      <path id="Path_8440" data-name="Path 8440" d="M133.551,55.032a3.086,3.086,0,0,0,1.688-.5l5.2-3.382a3.1,3.1,0,1,0-3.382-5.207l-5.2,3.382a3.1,3.1,0,0,0,1.694,5.707Z" fill="#bfbfbf"/>
      <path id="Path_8441" data-name="Path 8441" d="M176.966,96.707l-5.207-3.379a3.1,3.1,0,0,0-3.376,5.207l5.207,3.379a3.1,3.1,0,1,0,3.376-5.207Z" fill="#bfbfbf"/>
      <path id="Path_8442" data-name="Path 8442" d="M150.111,86.669l5.219,3.388a3.1,3.1,0,0,0,3.382-5.207l-5.219-3.388a3.1,3.1,0,1,0-3.382,5.207Z" fill="#bfbfbf"/>
      <path id="Path_8443" data-name="Path 8443" d="M131.857,74.813l5.2,3.382a3.1,3.1,0,1,0,3.382-5.207l-5.2-3.382a3.1,3.1,0,0,0-3.382,5.207Z" fill="#bfbfbf"/>
    </g>
  </g>
</svg>
