<svg xmlns="http://www.w3.org/2000/svg" xmlns:xlink="http://www.w3.org/1999/xlink" width="180" height="180" viewBox="0 0 180 180">
  <defs>
    <clipPath id="clip-path">
      <rect id="Rectangle_4430" data-name="Rectangle 4430" width="180" height="180" transform="translate(2390 4883)" fill="#fff" stroke="#707070" stroke-width="1"/>
    </clipPath>
  </defs>
  <g id="Irrigation_Active_" data-name="Irrigation Active " transform="translate(-2390 -4883)" clip-path="url(#clip-path)">
    <g id="watering-sprayer_1_" data-name="watering-sprayer (1)" transform="translate(2380.689 4873.689)">
      <path id="Path_8361" data-name="Path 8361" d="M111.724,40.345H86.9a9.3,9.3,0,0,0-9.31,9.31V74.483a9.342,9.342,0,0,0,6.207,8.752v28.49h31.034V83.234a9.342,9.342,0,0,0,6.207-8.752V49.655A9.3,9.3,0,0,0,111.724,40.345Zm3.1,34.138a3.073,3.073,0,0,1-3.1,3.1H86.9a3.073,3.073,0,0,1-3.1-3.1V49.655a3.073,3.073,0,0,1,3.1-3.1h24.828a3.073,3.073,0,0,1,3.1,3.1Z" fill="#fff"/>
      <path id="Path_8362" data-name="Path 8362" d="M90,117.931h18.621v24.828H90Z" fill="#fff"/>
      <path id="Path_8363" data-name="Path 8363" d="M176.9,173.793a3.073,3.073,0,0,1-3.1,3.1H24.828a3.1,3.1,0,1,1,0-6.207h3.414a15.519,15.519,0,0,1,15.207-12.414H71.379v-9.31h55.862v9.31h27.931a15.519,15.519,0,0,1,15.207,12.414h3.414A3.073,3.073,0,0,1,176.9,173.793Z" fill="#fff"/>
      <path id="Path_8364" data-name="Path 8364" d="M21.724,62.069a3.1,3.1,0,0,0-3.1-3.1H12.414a3.1,3.1,0,1,0,0,6.207h6.207A3.1,3.1,0,0,0,21.724,62.069Z" fill="#fff"/>
      <path id="Path_8365" data-name="Path 8365" d="M34.138,65.172h6.207a3.1,3.1,0,0,0,0-6.207H34.138a3.1,3.1,0,0,0,0,6.207Z" fill="#fff"/>
      <path id="Path_8366" data-name="Path 8366" d="M55.862,65.172h6.207a3.1,3.1,0,0,0,0-6.207H55.862a3.1,3.1,0,1,0,0,6.207Z" fill="#fff"/>
      <path id="Path_8367" data-name="Path 8367" d="M21.654,27.431l5.207,3.379A3.1,3.1,0,0,0,30.237,25.6l-5.207-3.379a3.1,3.1,0,1,0-3.376,5.207Z" fill="#fff"/>
      <path id="Path_8368" data-name="Path 8368" d="M39.908,39.287l5.219,3.388a3.1,3.1,0,1,0,3.382-5.207L43.291,34.08a3.1,3.1,0,1,0-3.382,5.207Z" fill="#fff"/>
      <path id="Path_8369" data-name="Path 8369" d="M58.178,51.149l5.2,3.382a3.1,3.1,0,0,0,3.382-5.207l-5.2-3.382a3.1,3.1,0,1,0-3.382,5.207Z" fill="#fff"/>
      <path id="Path_8370" data-name="Path 8370" d="M25.031,101.914l5.207-3.379a3.1,3.1,0,0,0-3.376-5.207l-5.207,3.379a3.1,3.1,0,1,0,3.376,5.207Z" fill="#fff"/>
      <path id="Path_8371" data-name="Path 8371" d="M45.127,81.462l-5.219,3.388a3.1,3.1,0,0,0,3.382,5.207l5.219-3.388a3.1,3.1,0,0,0-3.382-5.207Z" fill="#fff"/>
      <path id="Path_8372" data-name="Path 8372" d="M63.381,69.606l-5.2,3.382A3.1,3.1,0,0,0,61.56,78.2l5.2-3.382a3.1,3.1,0,0,0-3.382-5.207Z" fill="#fff"/>
      <path id="Path_8373" data-name="Path 8373" d="M186.207,58.966H180a3.1,3.1,0,0,0,0,6.207h6.207a3.1,3.1,0,0,0,0-6.207Z" fill="#fff"/>
      <path id="Path_8374" data-name="Path 8374" d="M155.172,62.069a3.1,3.1,0,0,0,3.1,3.1h6.207a3.1,3.1,0,1,0,0-6.207h-6.207A3.1,3.1,0,0,0,155.172,62.069Z" fill="#fff"/>
      <path id="Path_8375" data-name="Path 8375" d="M133.448,62.069a3.1,3.1,0,0,0,3.1,3.1h6.207a3.1,3.1,0,1,0,0-6.207h-6.207A3.1,3.1,0,0,0,133.448,62.069Z" fill="#fff"/>
      <path id="Path_8376" data-name="Path 8376" d="M170.074,31.31a3.076,3.076,0,0,0,1.685-.5l5.207-3.379a3.1,3.1,0,1,0-3.376-5.207L168.383,25.6a3.1,3.1,0,0,0,1.691,5.707Z" fill="#fff"/>
      <path id="Path_8377" data-name="Path 8377" d="M151.805,43.176a3.093,3.093,0,0,0,1.688-.5l5.219-3.388a3.1,3.1,0,0,0-3.382-5.207l-5.219,3.388a3.1,3.1,0,0,0,1.694,5.707Z" fill="#fff"/>
      <path id="Path_8378" data-name="Path 8378" d="M133.551,55.032a3.086,3.086,0,0,0,1.688-.5l5.2-3.382a3.1,3.1,0,1,0-3.382-5.207l-5.2,3.382a3.1,3.1,0,0,0,1.694,5.707Z" fill="#fff"/>
      <path id="Path_8379" data-name="Path 8379" d="M176.966,96.707l-5.207-3.379a3.1,3.1,0,0,0-3.376,5.207l5.207,3.379a3.1,3.1,0,1,0,3.376-5.207Z" fill="#fff"/>
      <path id="Path_8380" data-name="Path 8380" d="M150.111,86.669l5.219,3.388a3.1,3.1,0,0,0,3.382-5.207l-5.219-3.388a3.1,3.1,0,1,0-3.382,5.207Z" fill="#fff"/>
      <path id="Path_8381" data-name="Path 8381" d="M131.857,74.813l5.2,3.382a3.1,3.1,0,1,0,3.382-5.207l-5.2-3.382a3.1,3.1,0,0,0-3.382,5.207Z" fill="#fff"/>
    </g>
  </g>
</svg>
