<svg xmlns="http://www.w3.org/2000/svg" width="60" height="60" viewBox="0 0 60 60">
  <g id="Jurisdiction_active" data-name="Jurisdiction active" transform="translate(-6216 -2307)">
    <g id="Ellipse_74" data-name="Ellipse 74" transform="translate(6216 2307)" fill="none" stroke="#029588" stroke-width="2">
      <circle cx="30" cy="30" r="30" stroke="none"/>
      <circle cx="30" cy="30" r="29" fill="none"/>
    </g>
    <g id="map" transform="translate(6230 2285.598)">
      <path id="Path_7923" data-name="Path 7923" d="M32,62.254V64.2a1.089,1.089,0,0,1-.52.954,15.2,15.2,0,0,1-15.9,0,17.561,17.561,0,0,0-1.855-.916l-.085-1.246c-.5-4.28-2.045-7.484-4.628-9.533A11.733,11.733,0,0,0,.4,50.872l-.4.047V38.6a1.089,1.089,0,0,1,.52-.954,15.456,15.456,0,0,1,9.833-2.12V37c.012,3.88.694,6.779,2.1,8.685a10.658,10.658,0,0,0,3.59,2.931l.4.231.4.23c.325.188.566.329.8.472a18.944,18.944,0,0,1,1.6,1.065,13.337,13.337,0,0,1,1.259,1.066,7.05,7.05,0,0,1,1.726,2.756c.15.4.2.555.509,1.51.739,2.3,1.318,3.393,2.662,4.356a8.7,8.7,0,0,0,5.562,1.95H32Zm0-2.132H30.88A7.031,7.031,0,0,1,26.41,58.5c-.893-.639-1.292-1.391-1.9-3.281-.321-1-.378-1.172-.548-1.622a9.144,9.144,0,0,0-2.238-3.542,15.246,15.246,0,0,0-1.439-1.219,20.727,20.727,0,0,0-1.754-1.168c-.249-.15-.5-.3-.834-.49l-.4-.231-.39-.226a9.016,9.016,0,0,1-3.008-2.4c-1.079-1.461-1.652-3.9-1.663-7.319V35.9a17.83,17.83,0,0,1,4.186,1.743,13.513,13.513,0,0,0,14.217,0A.952.952,0,0,1,32,38.6v21.52ZM25.882,48.2a1.613,1.613,0,1,0-1.412-1.6,1.515,1.515,0,0,0,1.412,1.6ZM11.792,63.578a13.46,13.46,0,0,0-10.43,1.578A.952.952,0,0,1,0,64.2V53.063L.567,53A10,10,0,0,1,7.931,55.21c2.117,1.68,3.4,4.333,3.839,8.038Z" fill="#029588"/>
    </g>
  </g>
</svg>
