<svg xmlns="http://www.w3.org/2000/svg" xmlns:xlink="http://www.w3.org/1999/xlink" width="32" height="32" viewBox="0 0 32 32">
  <defs>
    <clipPath id="clip-Layer">
      <rect width="32" height="32"/>
    </clipPath>
  </defs>
  <g id="Layer" clip-path="url(#clip-Layer)">
    <rect width="32" height="32" fill="rgba(255,255,255,0)"/>
    <g id="layers" transform="translate(5 4.047)">
      <path id="Path_8382" data-name="Path 8382" d="M11.548,12.177a.7.7,0,0,1-.281-.06L.441,7.291a.78.78,0,0,1,0-1.4L11.267,1.06a.684.684,0,0,1,.561,0L22.655,5.886a.779.779,0,0,1,0,1.4L11.829,12.117A.7.7,0,0,1,11.548,12.177Z" transform="translate(0 0)" fill="#009688"/>
      <path id="Path_8383" data-name="Path 8383" d="M22.656,9.817l-1.128-.5-9.137,4.073a2.063,2.063,0,0,1-1.687,0L1.57,9.314l-1.129.5a.78.78,0,0,0,0,1.4l10.827,4.826a.689.689,0,0,0,.562,0l10.827-4.826a.78.78,0,0,0,0-1.4Z" transform="translate(0 -0.055)" fill="#009688"/>
      <path id="Path_8384" data-name="Path 8384" d="M22.656,13.817l-1.128-.5-9.137,4.073a2.063,2.063,0,0,1-1.687,0L1.57,13.314l-1.128.5a.779.779,0,0,0,0,1.4l10.827,4.826a.689.689,0,0,0,.562,0l10.827-4.826a.78.78,0,0,0,0-1.4Z" transform="translate(0 -0.081)" fill="#009688"/>
      <path id="Path_8385" data-name="Path 8385" d="M22.656,17.817l-1.128-.5-9.137,4.073a2.063,2.063,0,0,1-1.687,0L1.57,17.314l-1.128.5a.779.779,0,0,0,0,1.4l10.827,4.826a.689.689,0,0,0,.562,0l10.827-4.826a.78.78,0,0,0,0-1.4Z" transform="translate(0 -0.108)" fill="#009688"/>
    </g>
  </g>
</svg>
