<svg id="key" xmlns="http://www.w3.org/2000/svg" width="18" height="18" viewBox="0 0 18 18">
  <g id="Group_570" data-name="Group 570">
    <g id="Group_569" data-name="Group 569">
      <path id="Path_399" data-name="Path 399" d="M12,0A6.007,6.007,0,0,0,6,6a5.917,5.917,0,0,0,.127,1.2l-.67.335a.375.375,0,0,0-.1.6l.485.485L5.47,9H4.875a.375.375,0,0,0-.375.375V9.97l-.53.53H3.375A.375.375,0,0,0,3,10.875v.595L2.47,12H1.875a.375.375,0,0,0-.375.375v.595L.11,14.36a.375.375,0,0,0-.11.265v3A.375.375,0,0,0,.375,18h3a.375.375,0,0,0,.265-.11l5.735-5.735.485.485a.375.375,0,0,0,.6-.1l.335-.67A6,6,0,1,0,12,0ZM10.686,11.077a.377.377,0,0,0-.429.2l-.235.469L9.64,11.36a.375.375,0,0,0-.53,0L3.22,17.25H.75V14.78l1.39-1.39a.375.375,0,0,0,.11-.265V12.75h.375a.375.375,0,0,0,.265-.11l.75-.75a.375.375,0,0,0,.11-.265V11.25h.375a.375.375,0,0,0,.265-.11l.75-.75a.375.375,0,0,0,.11-.265V9.75h.375a.375.375,0,0,0,.265-.11l.75-.75a.375.375,0,0,0,0-.53l-.382-.382.469-.235a.375.375,0,0,0,.2-.429A5.248,5.248,0,1,1,17.25,6,5.232,5.232,0,0,1,10.686,11.077Z" fill="#bfbfbf"/>
      <path id="Path_400" data-name="Path 400" d="M343.219,64a1.885,1.885,0,1,0,1.885,1.885A1.888,1.888,0,0,0,343.219,64Zm0,3.017a1.131,1.131,0,1,1,1.131-1.131A1.132,1.132,0,0,1,343.219,67.017Z" transform="translate(-329.367 -61.738)" fill="#bfbfbf"/>
      <path id="Path_401" data-name="Path 401" d="M69.389,277.444l-5.279,5.279a.377.377,0,0,0,.533.533l5.279-5.279a.377.377,0,0,0-.533-.533Z" transform="translate(-61.737 -267.629)" fill="#bfbfbf"/>
    </g>
  </g>
</svg>
