<svg xmlns="http://www.w3.org/2000/svg" xmlns:xlink="http://www.w3.org/1999/xlink" width="32" height="32" viewBox="0 0 32 32">
  <defs>
    <clipPath id="clip-Playback">
      <rect width="32" height="32"/>
    </clipPath>
  </defs>
  <g id="Playback" clip-path="url(#clip-Playback)">
    <rect width="32" height="32" fill="rgba(255,255,255,0)"/>
    <g id="play_1_" data-name="play (1)" transform="translate(5.258 5.608)">
      <g id="Group_34321" data-name="Group 34321">
        <path id="Path_7700" data-name="Path 7700" d="M11.24,0A11.24,11.24,0,1,0,22.48,11.24,11.22,11.22,0,0,0,11.24,0Zm4.989,11.761L8.745,16.147a.6.6,0,0,1-.9-.521V6.881H7.813a.611.611,0,0,1,.3-.521.645.645,0,0,1,.631,0l7.484,4.359a.621.621,0,0,1,.3.521A.611.611,0,0,1,16.229,11.761Z" fill="#009688"/>
      </g>
    </g>
  </g>
</svg>
