<svg xmlns="http://www.w3.org/2000/svg" xmlns:xlink="http://www.w3.org/1999/xlink" width="32" height="32" viewBox="0 0 32 32">
  <defs>
    <clipPath id="clip-Schedule">
      <rect width="32" height="32"/>
    </clipPath>
  </defs>
  <g id="Schedule" clip-path="url(#clip-Schedule)">
    <rect width="32" height="32" fill="rgba(255,255,255,0)"/>
    <path id="today_FILL1_wght700_GRAD0_opsz48" d="M102.062-889.885a2.5,2.5,0,0,1-1.842-.754,2.521,2.521,0,0,1-.75-1.847,2.5,2.5,0,0,1,.754-1.842,2.52,2.52,0,0,1,1.847-.75,2.5,2.5,0,0,1,1.842.755,2.52,2.52,0,0,1,.75,1.847,2.5,2.5,0,0,1-.754,1.842A2.52,2.52,0,0,1,102.062-889.885Zm-4.546,6.665a2.425,2.425,0,0,1-1.781-.735A2.426,2.426,0,0,1,95-885.736v-16.115a2.465,2.465,0,0,1,.735-1.8,2.413,2.413,0,0,1,1.781-.743h1.5V-906h2.2v1.606H109.4V-906h2.2v1.606h1.5a2.451,2.451,0,0,1,1.8.743,2.451,2.451,0,0,1,.743,1.8v16.115a2.413,2.413,0,0,1-.743,1.781,2.464,2.464,0,0,1-1.8.735Zm0-2.516H113.1v-11.27H97.516Z" transform="translate(-88.867 911.458)" fill="#009688"/>
  </g>
</svg>
