<svg xmlns="http://www.w3.org/2000/svg" width="60" height="60" viewBox="0 0 60 60">
  <g id="Site_Active" data-name="Site Active" transform="translate(-808 -211)">
    <g id="Group_34128" data-name="Group 34128" transform="translate(-5408 -2096)">
      <g id="Path_7988" data-name="Path 7988" transform="translate(6216 2307)" fill="none">
        <path d="M30,0A30,30,0,1,1,0,30,30,30,0,0,1,30,0Z" stroke="none"/>
        <path d="M 30 2 C 26.21913909912109 2 22.55244064331055 2.740039825439453 19.10174942016602 4.199558258056641 C 15.76776885986328 5.609710693359375 12.77312850952148 7.628890991210938 10.20101165771484 10.20101165771484 C 7.628890991210938 12.77312850952148 5.609710693359375 15.76776885986328 4.199558258056641 19.10174942016602 C 2.740039825439453 22.55244064331055 2 26.21913909912109 2 30 C 2 33.78086090087891 2.740039825439453 37.44755935668945 4.199558258056641 40.89825057983398 C 5.609710693359375 44.23223114013672 7.628890991210938 47.22686767578125 10.20101165771484 49.79898834228516 C 12.77312850952148 52.37110900878906 15.76776885986328 54.39028930664062 19.10174942016602 55.80043792724609 C 22.55244064331055 57.25996017456055 26.21913909912109 58 30 58 C 33.78086090087891 58 37.44755935668945 57.25996017456055 40.89825057983398 55.80043792724609 C 44.23223114013672 54.39028930664062 47.22686767578125 52.37110900878906 49.79898834228516 49.79898834228516 C 52.37110900878906 47.22686767578125 54.39028930664062 44.23223114013672 55.80043792724609 40.89825057983398 C 57.25996017456055 37.44755935668945 58 33.78086090087891 58 30 C 58 26.21913909912109 57.25996017456055 22.55244064331055 55.80043792724609 19.10174942016602 C 54.39028930664062 15.76776885986328 52.37110900878906 12.77312850952148 49.79898834228516 10.20101165771484 C 47.22686767578125 7.628890991210938 44.23223114013672 5.609710693359375 40.89825057983398 4.199558258056641 C 37.44755935668945 2.740039825439453 33.78086090087891 2 30 2 M 30 0 C 46.56853866577148 0 60 13.43146133422852 60 30 C 60 46.56853866577148 46.56853866577148 60 30 60 C 13.43146133422852 60 0 46.56853866577148 0 30 C 0 13.43146133422852 13.43146133422852 0 30 0 Z" stroke="none" fill="#059488"/>
      </g>
    </g>
    <g id="location" transform="translate(821.788 178.521)">
      <path id="Path_7968" data-name="Path 7968" d="M225.292,136.26a2.076,2.076,0,1,1,2.076-2.076A2.079,2.079,0,0,1,225.292,136.26Z" transform="translate(-209.08 -77.726)" fill="#059488"/>
      <g id="Group_34131" data-name="Group 34131" transform="translate(0 49.127)">
        <g id="Group_34130" data-name="Group 34130" transform="translate(0 4.093)">
          <g id="Group_34129" data-name="Group 34129" transform="translate(0)">
            <path id="Path_7969" data-name="Path 7969" d="M6.624,118.757a9.511,9.511,0,0,1,.662-5H.95a.95.95,0,0,0-.95.95v4.765H6.753C6.7,119.234,6.656,119,6.624,118.757Z" transform="translate(0 -113.753)" fill="#059488"/>
            <path id="Path_7970" data-name="Path 7970" d="M403.139,113.752h-6.346a9.545,9.545,0,0,1,.558,5.715h6.738V114.7A.95.95,0,0,0,403.139,113.752Z" transform="translate(-371.665 -113.752)" fill="#059488"/>
          </g>
          <path id="Path_7971" data-name="Path 7971" d="M25.065,234l-.005.011c-1.3,2.6-2.86,5.081-4.366,7.475-.68,1.081-1.381,2.2-2.033,3.283a2.85,2.85,0,0,1-4.888,0l-3.508-5.852c-.233-.389-.506-.81-.8-1.255A25.089,25.089,0,0,1,7.384,234H0v13.544a.95.95,0,0,0,.95.95H31.474a.95.95,0,0,0,.95-.95V234Z" transform="translate(0 -226.385)" fill="#059488"/>
        </g>
        <path id="Path_7972" data-name="Path 7972" d="M147.669,53.019a7.77,7.77,0,0,0-14.4,4.947,14.316,14.316,0,0,0,2.556,5.5c.3.46.582.9.833,1.314l3.508,5.852a.95.95,0,0,0,1.63,0c.663-1.106,1.37-2.23,2.054-3.317,1.482-2.356,3.014-4.792,4.276-7.314q.013-.027.025-.054a7.692,7.692,0,0,0-.477-6.923Zm-6.69,7.408a3.969,3.969,0,1,1,3.969-3.969A3.974,3.974,0,0,1,140.979,60.427Z" transform="translate(-124.759 -49.127)" fill="#059488"/>
      </g>
    </g>
  </g>
</svg>
