<svg xmlns="http://www.w3.org/2000/svg" xmlns:xlink="http://www.w3.org/1999/xlink" width="180" height="180" viewBox="0 0 180 180">
  <defs>
    <clipPath id="clip-path">
      <rect id="Rectangle_4397" data-name="Rectangle 4397" width="180" height="180" transform="translate(1957 2693)" fill="#bfbfbf" stroke="#707070" stroke-width="1"/>
    </clipPath>
  </defs>
  <g id="Smart_Lighting_Inactive" data-name="Smart Lighting Inactive" transform="translate(-1957 -2693)" clip-path="url(#clip-path)">
    <g id="Group_34142" data-name="Group 34142" transform="translate(-1048.293 2002.061)">
      <g id="street-light" transform="translate(3023.916 690.939)">
        <path id="Path_7990" data-name="Path 7990" d="M79.754,159H36.311A9.322,9.322,0,0,0,27,168.311v12.415a3.1,3.1,0,0,0,3.1,3.1H85.962a3.1,3.1,0,0,0,3.1-3.1V168.311A9.322,9.322,0,0,0,79.754,159Z" transform="translate(-27 -3.83)" fill="#bfbfbf"/>
        <path id="Path_7991" data-name="Path 7991" d="M73.038,142.443a15.544,15.544,0,0,0-12.415-15.2V55.552a40.39,40.39,0,0,1,40.339-40.344h46.552V12.1a3.1,3.1,0,0,0-3.1-3.1H100.962A46.6,46.6,0,0,0,54.41,55.552v71.693A15.544,15.544,0,0,0,42,142.443v15.519H73.038Z" transform="translate(-26.481 -9)" fill="#bfbfbf"/>
        <path id="Path_7992" data-name="Path 7992" d="M123,54.1v6.208a3.1,3.1,0,0,0,6.208,0V54.1a3.1,3.1,0,1,0-6.208,0Z" transform="translate(-23.694 -7.552)" fill="#bfbfbf"/>
        <path id="Path_7993" data-name="Path 7993" d="M136.715,48.326a3.1,3.1,0,0,0-1.389,4.162l3.1,6.208a3.1,3.1,0,0,0,5.551-2.778l-3.1-6.208a3.109,3.109,0,0,0-4.162-1.384Z" transform="translate(-23.279 -7.656)" fill="#bfbfbf"/>
        <path id="Path_7994" data-name="Path 7994" d="M111.431,49.715l-3.1,6.208a3.1,3.1,0,0,0,5.551,2.778l3.1-6.208a3.1,3.1,0,0,0-5.551-2.778Z" transform="translate(-24.209 -7.656)" fill="#bfbfbf"/>
        <path id="Path_7995" data-name="Path 7995" d="M127.344,75a40.344,40.344,0,1,0,40.344,40.344A40.344,40.344,0,0,0,127.344,75Zm0,65.17a3.1,3.1,0,1,1,3.1-3.1A3.1,3.1,0,0,1,127.344,140.17Zm8.777-10.594a3.1,3.1,0,0,1-4.386,0,6.355,6.355,0,0,0-8.777,0,3.1,3.1,0,0,1-4.386-4.386,12.721,12.721,0,0,1,17.554,0,3.1,3.1,0,0,1-.005,4.386Zm8.777-8.782a3.1,3.1,0,0,1-4.386,0,18.653,18.653,0,0,0-26.337,0,3.1,3.1,0,0,1-4.386-4.386,24.856,24.856,0,0,1,35.109,0,3.1,3.1,0,0,1,0,4.386Zm8.757-8.777a3.1,3.1,0,0,1-4.386,0,31.074,31.074,0,0,0-43.891,0,3.1,3.1,0,0,1-4.386-4.386,37.276,37.276,0,0,1,52.668,0A3.1,3.1,0,0,1,153.655,112.017Z" transform="translate(-24.934 -6.727)" fill="#bfbfbf"/>
        <path id="Path_7996" data-name="Path 7996" d="M145.241,21H108v6.208a18.62,18.62,0,0,0,37.241,0Z" transform="translate(-24.208 -8.585)" fill="#bfbfbf"/>
      </g>
    </g>
  </g>
</svg>
