<svg xmlns="http://www.w3.org/2000/svg" xmlns:xlink="http://www.w3.org/1999/xlink" width="52" height="52" viewBox="0 0 52 52">
  <defs>
    <clipPath id="clip-path">
      <rect id="Rectangle_16836" data-name="Rectangle 16836" width="52" height="52" transform="translate(17 306)" fill="#fff" stroke="#707070" stroke-width="1"/>
    </clipPath>
  </defs>
  <g id="SOP_Active" data-name="SOP Active" transform="translate(-17 -306)" clip-path="url(#clip-path)">
    <g id="Artboard51" transform="translate(19.058 306.001)">
      <path id="Path_8127" data-name="Path 8127" d="M2.11,6.838,8.123.825V6.838Zm14.157,6.583a.844.844,0,1,1,0-1.689h8.808a.844.844,0,0,1,0,1.689Zm0-2.7a.844.844,0,1,1,0-1.689h8.808a.844.844,0,0,1,0,1.689Zm0,13.618a.844.844,0,1,1,0-1.689h8.808a.844.844,0,0,1,0,1.689Zm0,2.7a.844.844,0,1,1,0-1.689h8.808a.844.844,0,0,1,0,1.689Zm0,10.922a.844.844,0,1,1,0-1.689h8.808a.844.844,0,0,1,0,1.689Zm0,2.7a.844.844,0,1,1,0-1.689h8.808a.844.844,0,0,1,0,1.689ZM33.78,48.933H2.11V8.526H8.123A1.689,1.689,0,0,0,9.812,6.838V.825H39.23V31.53l-5.939,2.544V24.766a.844.844,0,0,0-.844-.844H28.94V20.593H12.4v3.328H9.743V12.108H12.4v3.373H28.94V6.975H12.4v3.444H8.9a.844.844,0,0,0-.844.844v13.5a.844.844,0,0,0,.844.844h3.5V29.1H28.94V25.61H31.6V37.481H28.94V34.211H12.4v8.505H28.94V39.169h2.867v3.422a11.213,11.213,0,0,0,1.973,6.342Zm7.559-16.47,7.846,3.359v6.768a9.63,9.63,0,0,1-7.846,9.423A9.63,9.63,0,0,1,33.5,42.591V35.823Zm-4.2,10.59,2.1,2.1a.844.844,0,0,0,1.164.028l5.107-4.63A.844.844,0,1,0,44.378,39.3l-4.512,4.091-1.533-1.531a.844.844,0,1,0-1.193,1.2Z" transform="translate(-2.11 -0.825)" fill="#fff" fill-rule="evenodd"/>
    </g>
  </g>
</svg>
