<svg xmlns="http://www.w3.org/2000/svg" xmlns:xlink="http://www.w3.org/1999/xlink" width="32" height="32" viewBox="0 0 32 32">
  <defs>
    <clipPath id="clip-Staff">
      <rect width="32" height="32"/>
    </clipPath>
  </defs>
  <g id="Staff" clip-path="url(#clip-Staff)">
    <rect width="32" height="32" fill="rgba(255,255,255,0)"/>
    <g id="multiple-users-silhouette_1_" data-name="multiple-users-silhouette (1)" transform="translate(39.432 -112.698)">
      <path id="Path_8398" data-name="Path 8398" d="M13.88,9.93a4.556,4.556,0,0,1,1.945,3.348,3.154,3.154,0,0,0,1.425.344,3.512,3.512,0,0,0,3.373-3.637A3.512,3.512,0,0,0,17.25,6.348,3.508,3.508,0,0,0,13.88,9.93Zm-2.21,7.447a3.513,3.513,0,0,0,3.373-3.637A3.512,3.512,0,0,0,11.67,10.1,3.513,3.513,0,0,0,8.3,13.74,3.513,3.513,0,0,0,11.67,17.377Zm1.431.248H10.238a4.5,4.5,0,0,0-4.319,4.657v3.774l.009.059.241.081a18.356,18.356,0,0,0,5.872,1.021,11.328,11.328,0,0,0,5.128-1.038l.225-.123h.024V22.281A4.5,4.5,0,0,0,13.1,17.624Zm5.581-3.755h-2.84a4.648,4.648,0,0,1-1.283,3.122,5.494,5.494,0,0,1,3.666,5.3V23.45a10.939,10.939,0,0,0,4.527-1.025l.225-.123H23V18.526A4.5,4.5,0,0,0,18.681,13.87ZM5.751,13.622a3.176,3.176,0,0,0,1.794-.561A4.579,4.579,0,0,1,9.114,10.19c0-.068.009-.136.009-.2A3.512,3.512,0,0,0,5.751,6.349,3.512,3.512,0,0,0,2.377,9.986,3.512,3.512,0,0,0,5.751,13.622Zm3.029,3.37a4.65,4.65,0,0,1-1.282-3.1c-.105-.008-.21-.017-.317-.017H4.319A4.5,4.5,0,0,0,0,18.526V22.3l.009.058.241.082a18.943,18.943,0,0,0,4.864.986v-1.14A5.5,5.5,0,0,1,8.78,16.992Z" transform="translate(-34.432 112.397)" fill="#009688"/>
    </g>
  </g>
</svg>
