<svg xmlns="http://www.w3.org/2000/svg" width="16.6" height="16.6" viewBox="0 0 16.6 16.6">
  <g id="Group_4460" data-name="Group 4460" transform="translate(-799.239 -184.438)">
    <g id="sync" transform="translate(799.239 184.438)">
      <g id="Group_5339" data-name="Group 5339">
        <g id="Group_5338" data-name="Group 5338">
          <path id="Path_5112" data-name="Path 5112" d="M8.3.755a7.545,7.545,0,0,1,6.036,3.018H11.318a.377.377,0,0,0,0,.755h3.773a.377.377,0,0,0,.377-.377V.377a.377.377,0,0,0-.755,0V3.045A8.3,8.3,0,0,0,0,8.3a.377.377,0,1,0,.755,0A7.545,7.545,0,0,1,8.3.755Z" fill="#fff"/>
          <path id="Path_5113" data-name="Path 5113" d="M50,244.364a.377.377,0,0,0-.377.377,7.545,7.545,0,0,1-13.581,4.527h3.018a.377.377,0,1,0,0-.755H35.286a.377.377,0,0,0-.377.377v3.773a.377.377,0,1,0,.755,0V250a8.3,8.3,0,0,0,14.713-5.255A.377.377,0,0,0,50,244.364Z" transform="translate(-33.777 -236.441)" fill="#fff"/>
        </g>
      </g>
    </g>
  </g>
</svg>
