<svg id="trash" xmlns="http://www.w3.org/2000/svg" width="18.643" height="22.945" viewBox="0 0 18.643 22.945">
  <path id="Path_3006" data-name="Path 3006" d="M64.85,2.868H60.907V2.151A2.151,2.151,0,0,0,58.756,0H55.887a2.151,2.151,0,0,0-2.151,2.151v.717H49.793A1.793,1.793,0,0,0,48,4.661V6.095a.717.717,0,0,0,.717.717H65.926a.717.717,0,0,0,.717-.717V4.661A1.793,1.793,0,0,0,64.85,2.868Zm-9.68-.717a.718.718,0,0,1,.717-.717h2.868a.718.718,0,0,1,.717.717v.717h-4.3Z" transform="translate(-48)" fill="#bfbfbf"/>
  <path id="Path_3007" data-name="Path 3007" d="M73.588,184a.224.224,0,0,0-.224.235l.592,12.416A2.148,2.148,0,0,0,76.1,198.7H86.994a2.148,2.148,0,0,0,2.148-2.049l.592-12.416A.224.224,0,0,0,89.51,184Zm10.829,1.793a.717.717,0,0,1,1.434,0v9.322a.717.717,0,0,1-1.434,0Zm-3.585,0a.717.717,0,0,1,1.434,0v9.322a.717.717,0,0,1-1.434,0Zm-3.585,0a.717.717,0,0,1,1.434,0v9.322a.717.717,0,0,1-1.434,0Z" transform="translate(-72.228 -175.754)" fill="#bfbfbf"/>
</svg>
