<svg xmlns="http://www.w3.org/2000/svg" xmlns:xlink="http://www.w3.org/1999/xlink" width="32" height="32" viewBox="0 0 32 32">
  <defs>
    <clipPath id="clip-Trips_1">
      <rect width="32" height="32"/>
    </clipPath>
  </defs>
  <g id="Trips_1" data-name="Trips – 1" clip-path="url(#clip-Trips_1)">
    <rect width="32" height="32" fill="rgba(255,255,255,0)"/>
    <path id="local_shipping_FILL1_wght700_GRAD0_opsz48" d="M22.642-804.865a3.411,3.411,0,0,1-2.346-.885,3.039,3.039,0,0,1-1.046-2.239H17v-12.522a2.4,2.4,0,0,1,.727-1.761A2.4,2.4,0,0,1,19.489-823H34.817v4.1h2.595l4.1,5.495v5.413h-2.2a3.135,3.135,0,0,1-1.069,2.239,3.4,3.4,0,0,1-2.343.885,3.411,3.411,0,0,1-2.346-.885,3.039,3.039,0,0,1-1.046-2.239H26.028a3.179,3.179,0,0,1-1.056,2.224A3.319,3.319,0,0,1,22.642-804.865Zm0-1.906a1.48,1.48,0,0,0,1.085-.45,1.48,1.48,0,0,0,.45-1.086,1.479,1.479,0,0,0-.45-1.085,1.479,1.479,0,0,0-1.085-.45,1.479,1.479,0,0,0-1.085.45,1.479,1.479,0,0,0-.45,1.085,1.48,1.48,0,0,0,.45,1.086A1.48,1.48,0,0,0,22.639-806.771Zm13.264,0a1.48,1.48,0,0,0,1.085-.45,1.48,1.48,0,0,0,.45-1.086,1.479,1.479,0,0,0-.45-1.085,1.479,1.479,0,0,0-1.085-.45,1.479,1.479,0,0,0-1.085.45,1.479,1.479,0,0,0-.45,1.085,1.48,1.48,0,0,0,.45,1.086A1.48,1.48,0,0,0,35.9-806.771Zm-1.085-5.692h4.289l-2.939-3.918h-1.35Z" transform="translate(-13.258 830.283)" fill="#131313"/>
  </g>
</svg>
