<svg xmlns="http://www.w3.org/2000/svg" xmlns:xlink="http://www.w3.org/1999/xlink" width="32" height="32" viewBox="0 0 32 32">
  <defs>
    <clipPath id="clip-User_datail">
      <rect width="32" height="32"/>
    </clipPath>
  </defs>
  <g id="User_datail" data-name="User datail" clip-path="url(#clip-User_datail)">
    <rect width="32" height="32" fill="rgba(255,255,255,0)"/>
    <g id="profile" transform="translate(4.1 4.547)">
      <path id="Path_8386" data-name="Path 8386" d="M6.3,23.5H18.144a3.418,3.418,0,0,0,3.4-3.354V3.854A3.418,3.418,0,0,0,18.144.5H6.3A3.418,3.418,0,0,0,2.9,3.854V20.146A3.418,3.418,0,0,0,6.3,23.5ZM12.221,3.471A2.761,2.761,0,0,1,14.94,6.154a2.761,2.761,0,0,1-2.719,2.683,2.684,2.684,0,1,1,0-5.367ZM7.366,13.821a5.007,5.007,0,0,1,2.913-3.45,4.4,4.4,0,0,0,1.942.383,6.349,6.349,0,0,0,1.942-.383,5.007,5.007,0,0,1,2.913,3.45,1.369,1.369,0,0,1-.291,1.246,1.937,1.937,0,0,1-1.262.575H8.92a1.574,1.574,0,0,1-1.262-.575A1.369,1.369,0,0,1,7.366,13.821Zm-.583,4.792H17.755a.911.911,0,0,1,.971.958.966.966,0,0,1-.971.958H6.784a1.037,1.037,0,0,1-.971-.958.911.911,0,0,1,.971-.958Z" fill="#009688"/>
    </g>
  </g>
</svg>
