<svg xmlns="http://www.w3.org/2000/svg" xmlns:xlink="http://www.w3.org/1999/xlink" width="52" height="52" viewBox="0 0 52 52">
  <defs>
    <clipPath id="clip-path">
      <rect id="Rectangle_4390" data-name="Rectangle 4390" width="52" height="52" transform="translate(15 363)" fill="#fff" stroke="#707070" stroke-width="1"/>
    </clipPath>
  </defs>
  <g id="User_directory_active" data-name="User directory active" transform="translate(-15 -363)" clip-path="url(#clip-path)">
    <path id="agenda" d="M4.427,4.659A4.664,4.664,0,0,1,9.085,0H10.9V41.28a.858.858,0,0,0,.042.266h-2a6.251,6.251,0,0,0-4.523,1.933ZM42.285,52.338V43.287c-.028,0-.057,0-.086,0H8.95a4.523,4.523,0,1,0,0,9.047Zm0-10.788c-.028,0-.057,0-.086,0H12.607a.858.858,0,0,0,.043-.266V0H42.285ZM34.609,27.82a.872.872,0,0,0-.872-.872H21.2a.872.872,0,1,0,0,1.744H33.736A.873.873,0,0,0,34.609,27.82Zm0,4.63a.872.872,0,0,0-.872-.872H21.2a.872.872,0,1,0,0,1.744H33.736A.873.873,0,0,0,34.609,32.449Zm0,4.63a.873.873,0,0,0-.872-.872H21.2a.872.872,0,1,0,0,1.744H33.736A.873.873,0,0,0,34.609,37.079ZM27.467,24.09a9.845,9.845,0,1,0-9.846-9.845,9.845,9.845,0,0,0,9.846,9.845ZM22.4,20.556a8.081,8.081,0,0,0,10.142,0c0-1.044,0-2.27-.006-2.8a.778.778,0,0,0-.393-.483l-.043-.024a10.291,10.291,0,0,0-1.3-.6,8.067,8.067,0,0,1-2.05-1.08,2.344,2.344,0,0,1-.872-2.447.868.868,0,0,1,.294-.48,3.016,3.016,0,0,0,.622-2.778,1.388,1.388,0,0,0-2.657,0,3.017,3.017,0,0,0,.626,2.758.867.867,0,0,1,.283.463,2.346,2.346,0,0,1-.85,2.476,8,8,0,0,1-2.063,1.089,10.437,10.437,0,0,0-1.3.6l-.042.024a.779.779,0,0,0-.393.483c0,.526,0,1.752-.005,2.8ZM27.467,6.144A8.1,8.1,0,0,0,20.655,18.62c0-.422,0-.771,0-.966a.846.846,0,0,1,.015-.157,2.508,2.508,0,0,1,1.292-1.755,11.974,11.974,0,0,1,1.5-.7c1.424-.588,1.893-.9,1.906-1.334a4.865,4.865,0,0,1-.963-4.1,3.122,3.122,0,0,1,6.109,0,4.877,4.877,0,0,1-.96,4.12c.028.425.5.729,1.907,1.31a11.967,11.967,0,0,1,1.5.7A2.509,2.509,0,0,1,34.261,17.5a.838.838,0,0,1,.015.157c0,.195,0,.544,0,.966A8.1,8.1,0,0,0,27.467,6.144Z" transform="translate(17.813 363)" fill="#fff" fill-rule="evenodd"/>
  </g>
</svg>
