<svg xmlns="http://www.w3.org/2000/svg" xmlns:xlink="http://www.w3.org/1999/xlink" width="32" height="32" viewBox="0 0 32 32">
  <defs>
    <clipPath id="clip-Vehicle_Master">
      <rect width="32" height="32"/>
    </clipPath>
  </defs>
  <g id="Vehicle_Master" data-name="Vehicle Master" clip-path="url(#clip-Vehicle_Master)">
    <rect width="32" height="32" fill="rgba(255,255,255,0)"/>
    <path id="management" d="M27.762,65.07H25.843a2.153,2.153,0,0,0-3.673-1.488,2.13,2.13,0,0,0-.628,1.488H13.624v-11.6h1.947v1.879H17.02a5.878,5.878,0,0,0,.419,1.013L16.414,57.39l2.468,2.473,1.03-1.03a5.892,5.892,0,0,0,1.013.419v1.454h3.492V59.253a6.031,6.031,0,0,0,1.008-.419l1.03,1.03,1.307-1.307ZM25.549,49.343l.905-.905,1.386,1.386-.911.906a5.018,5.018,0,0,1,.787,1.9H29v1.964H27.716a5.019,5.019,0,0,1-.787,1.9l.911.905-1.386,1.387-.905-.906a5.232,5.232,0,0,1-1.9.787v1.279H21.689V58.658a5.163,5.163,0,0,1-1.9-.787l-.911.906L17.5,57.39l.906-.905a5.162,5.162,0,0,1-.787-1.9H16.335V52.625H17.62a5.2,5.2,0,0,1,.787-1.9l-.906-.906,1.381-1.386.911.905a5.168,5.168,0,0,1,1.9-.787V47.277h1.958v1.279A5.235,5.235,0,0,1,25.549,49.343Zm-2.881,1.1A3.161,3.161,0,1,1,19.5,53.61,3.162,3.162,0,0,1,22.668,50.446ZM9.81,63.735a1.372,1.372,0,1,0,1.37,1.37A1.367,1.367,0,0,0,9.81,63.735Zm3.424,1.336H11.96a2.153,2.153,0,0,0-3.673-1.488,2.153,2.153,0,0,0-.628,1.488H6V63.491l.073-.141H7.6a.391.391,0,0,0,0-.781H6.273V60.814l1.7-4.55h5.263Zm-4.1-7.233L8.1,60.5h3.95v-2.66Zm14.556,5.9a1.372,1.372,0,1,0,1.37,1.37A1.372,1.372,0,0,0,23.692,63.735Z" transform="translate(-1 -40.23)" fill="#009688" fill-rule="evenodd"/>
  </g>
</svg>
