<svg xmlns="http://www.w3.org/2000/svg" xmlns:xlink="http://www.w3.org/1999/xlink" width="180" height="180" viewBox="0 0 180 180">
  <defs>
    <clipPath id="clip-path">
      <rect id="Rectangle_4388" data-name="Rectangle 4388" width="180" height="180" transform="translate(-9565 6247)" fill="#fff" stroke="#707070" stroke-width="1"/>
    </clipPath>
  </defs>
  <g id="VMD_Active" data-name="VMD Active" transform="translate(9565 -6247)" clip-path="url(#clip-path)">
    <g id="signage" transform="translate(-9543 6269)">
      <path id="Path_7858" data-name="Path 7858" d="M132.326,0H3.994A3.994,3.994,0,0,0,0,3.994V89.548a3.994,3.994,0,0,0,3.994,3.994H132.326a3.994,3.994,0,0,0,3.994-3.994V3.994A3.994,3.994,0,0,0,132.326,0ZM63.6,72.437A3.994,3.994,0,0,1,59.6,76.431H21.1a3.994,3.994,0,0,1-3.994-3.994V38.215A3.994,3.994,0,0,1,21.1,34.222H59.6A3.994,3.994,0,0,1,63.6,38.215ZM98.1,67.876H76.715a3.994,3.994,0,0,1,0-7.987H98.1A3.994,3.994,0,0,1,98.1,67.876Zm17.111-17.111h-38.5a3.994,3.994,0,0,1,0-7.987h38.5A3.994,3.994,0,0,1,115.215,50.765Zm0-25.666H21.1a3.994,3.994,0,0,1,0-7.987h94.11A3.994,3.994,0,0,1,115.215,25.1Z" fill="#fff"/>
      <path id="Path_7859" data-name="Path 7859" d="M60.535,158.533H91.047v26.235H60.535Zm25.95,86.123H81.923V222.415a4.567,4.567,0,0,1,4.562-4.562H52.263a4.567,4.567,0,0,1,4.562,4.562v22.241H52.263a3.994,3.994,0,0,0,0,7.987H86.485A3.994,3.994,0,0,0,86.485,244.656Zm68.444,0h-4.562V222.415a4.567,4.567,0,0,1,4.562-4.562H120.707a4.567,4.567,0,0,1,4.562,4.562v22.241h-4.562a3.994,3.994,0,0,0,0,7.987h34.222A3.994,3.994,0,0,0,154.929,244.656Z" transform="translate(-35.436 -116.324)" fill="#fff"/>
    </g>
  </g>
</svg>
