<svg xmlns="http://www.w3.org/2000/svg" xmlns:xlink="http://www.w3.org/1999/xlink" width="35" height="35" viewBox="0 0 35 35">
  <defs>
    <clipPath id="clip-path">
      <rect id="Rectangle_36" data-name="Rectangle 36" width="35" height="35" transform="translate(20 20.075)" fill="#fff"/>
    </clipPath>
  </defs>
  <g id="Mask_Group_1" data-name="Mask Group 1" transform="translate(-20 -20.075)" clip-path="url(#clip-path)">
    <g id="rewind" transform="translate(20 20.075)">
      <g id="Group_34125" data-name="Group 34125">
        <g id="Group_34124" data-name="Group 34124">
          <path id="Path_300" data-name="Path 300" d="M33.362,6.544a2.594,2.594,0,0,0-1.453.54l-12.034,8.3A2.589,2.589,0,0,0,18.63,17.5a2.591,2.591,0,0,0,1.246,2.112l12.034,8.3a2.6,2.6,0,0,0,1.454.54c1.015,0,1.637-.874,1.637-2.226V8.77C35,7.418,34.379,6.544,33.362,6.544Z" fill="#fff"/>
        </g>
      </g>
      <g id="Group_34127" data-name="Group 34127">
        <g id="Group_34126" data-name="Group 34126">
          <path id="Path_301" data-name="Path 301" d="M14.735,6.544a2.6,2.6,0,0,0-1.454.54l-12.034,8.3A2.589,2.589,0,0,0,0,17.5a2.591,2.591,0,0,0,1.247,2.112l12.034,8.3a2.6,2.6,0,0,0,1.455.54c1.016,0,1.638-.874,1.638-2.226V8.771C16.374,7.419,15.752,6.544,14.735,6.544Z" fill="#fff"/>
        </g>
      </g>
    </g>
  </g>
</svg>
