<svg xmlns="http://www.w3.org/2000/svg" xmlns:xlink="http://www.w3.org/1999/xlink" width="35" height="35" viewBox="0 0 35 35">
  <defs>
    <clipPath id="clip-path">
      <rect id="Rectangle_36" data-name="Rectangle 36" width="35" height="35" transform="translate(20 20.075)" fill="#fff"/>
    </clipPath>
  </defs>
  <g id="Mask_Group_5" data-name="Mask Group 5" transform="translate(-20 -20.075)" clip-path="url(#clip-path)">
    <g id="pause_1_" data-name="pause (1)" transform="translate(20 20.075)">
      <g id="Group_34135" data-name="Group 34135">
        <g id="Group_34134" data-name="Group 34134">
          <path id="Path_306" data-name="Path 306" d="M12.628,0l-.853.018A1.932,1.932,0,0,0,9.844,1.932v31.18a1.975,1.975,0,0,0,2,1.888h.006l.778-.005a1.859,1.859,0,0,0,1.859-1.9V1.915A1.872,1.872,0,0,0,12.628,0Z" fill="#fff"/>
        </g>
      </g>
      <g id="Group_34137" data-name="Group 34137">
        <g id="Group_34136" data-name="Group 34136">
          <path id="Path_307" data-name="Path 307" d="M23.3,0l-.858.018a1.935,1.935,0,0,0-1.936,1.914v31.18A2,2,0,0,0,22.536,35h.006l.767-.005a1.849,1.849,0,0,0,1.848-1.9V1.915A1.863,1.863,0,0,0,23.3,0Z" fill="#fff"/>
        </g>
      </g>
    </g>
  </g>
</svg>
