<svg xmlns="http://www.w3.org/2000/svg" xmlns:xlink="http://www.w3.org/1999/xlink" width="32" height="32" viewBox="0 0 32 32">
  <defs>
    <clipPath id="clip-Alert_Management">
      <rect width="32" height="32"/>
    </clipPath>
  </defs>
  <g id="Alert_Management" data-name="Alert Management" clip-path="url(#clip-Alert_Management)">
    <rect width="32" height="32" fill="rgba(255,255,255,0)"/>
    <g id="Group_34238" data-name="Group 34238" transform="translate(-22.475 4.35)">
      <g id="Group_13" data-name="Group 13" transform="translate(28.385 0.355)">
        <path id="Path_10" data-name="Path 10" d="M175.993,451.092a4.1,4.1,0,0,0,7.575,0,27.955,27.955,0,0,1-7.575,0Z" transform="translate(-169.686 -430.439)" fill="#009688"/>
        <path id="Path_11" data-name="Path 11" d="M41.369,73.632a30.045,30.045,0,0,0,11.914,0l4.133-.705h0a10.056,10.056,0,0,1-3.186-7.318V61.735a5.855,5.855,0,0,0-3.46-5.3,8.369,8.369,0,0,0-6.883,0,6.055,6.055,0,0,0-3.6,5.292v3.874a9.924,9.924,0,0,1-3.048,7.318h0Z" transform="translate(-37.236 -53.317)" fill="#009688"/>
        <path id="Path_12" data-name="Path 12" d="M214.4,9.848s-.339-2.635,1.77-2.635a2.224,2.224,0,0,1,1.807,2.6Z" transform="translate(-206.18 -7.213)" fill="#009688"/>
      </g>
      <g id="Group_14" data-name="Group 14" transform="translate(27.928)">
        <path id="Path_15" data-name="Path 15" d="M38.475,65.751a35.08,35.08,0,0,1-6.043-.607h0l-4.142-.707a.435.435,0,0,1-.342-.3.428.428,0,0,1,.108-.436,9.526,9.526,0,0,0,2.926-7.033V52.787a6.532,6.532,0,0,1,3.863-5.7,8.778,8.778,0,0,1,7.261,0,6.278,6.278,0,0,1,3.722,5.705v3.883A9.6,9.6,0,0,0,48.893,63.7.428.428,0,0,1,49,64.14a.435.435,0,0,1-.342.3l-4.141.707a35.078,35.078,0,0,1-6.044.607Zm-5.9-1.458a29.625,29.625,0,0,0,11.791,0l3.341-.571a10.443,10.443,0,0,1-2.755-7.05V52.787a5.477,5.477,0,0,0-3.212-4.918,7.9,7.9,0,0,0-6.533,0,5.653,5.653,0,0,0-3.356,4.917v3.883a10.323,10.323,0,0,1-2.618,7.049Z" transform="translate(-27.928 -44.024)" fill="#009688"/>
        <path id="Path_17" data-name="Path 17" d="M205.258,3.41a.457.457,0,0,1-.458-.458V2.288a2.288,2.288,0,0,1,4.576,0V2.92a.458.458,0,0,1-.549.448,8.322,8.322,0,0,0-3.468.031.453.453,0,0,1-.1.011Zm1.83-2.5a1.374,1.374,0,0,0-1.373,1.373V2.4a9.3,9.3,0,0,1,2.745-.023V2.288A1.374,1.374,0,0,0,207.088.915Z" transform="translate(-196.614)" fill="#009688"/>
        <path id="Path_18" data-name="Path 18" d="M170.927,445.239a4.636,4.636,0,0,1-4.206-2.808.458.458,0,0,1,.476-.639,27.368,27.368,0,0,0,7.46,0,.463.463,0,0,1,.424.181.458.458,0,0,1,.052.459,4.637,4.637,0,0,1-4.206,2.809Zm-2.938-2.434a3.6,3.6,0,0,0,5.877,0,27.369,27.369,0,0,1-5.877,0Z" transform="translate(-160.375 -421.239)" fill="#009688"/>
      </g>
    </g>
  </g>
</svg>
