<svg xmlns="http://www.w3.org/2000/svg" xmlns:xlink="http://www.w3.org/1999/xlink" width="32" height="32" viewBox="0 0 32 32">
  <defs>
    <clipPath id="clip-Comments_">
      <rect width="32" height="32"/>
    </clipPath>
  </defs>
  <g id="Comments_" data-name="Comments " clip-path="url(#clip-Comments_)">
    <rect width="32" height="32" fill="rgba(255,255,255,0)"/>
    <path id="chat" d="M21.509,3H5.491A3.5,3.5,0,0,0,2,6.491v10.67a3.49,3.49,0,0,0,3.31,3.483V23a1.336,1.336,0,0,0,.764,1.216,1.276,1.276,0,0,0,.591.14,1.338,1.338,0,0,0,.838-.3l2.308-1.824A7.433,7.433,0,0,1,14.4,20.644h7.114A3.493,3.493,0,0,0,25,17.153V6.491A3.5,3.5,0,0,0,21.509,3ZM8.571,10.853a.821.821,0,0,1,0-1.643h9.857a.821.821,0,1,1,0,1.643Zm5.75,2.768a.824.824,0,0,1-.821.821H8.571a.821.821,0,0,1,0-1.643H13.5A.819.819,0,0,1,14.321,13.621Z" transform="translate(3 3.047)" fill="#009688"/>
  </g>
</svg>
