<svg xmlns="http://www.w3.org/2000/svg" xmlns:xlink="http://www.w3.org/1999/xlink" width="32" height="32" viewBox="0 0 32 32">
  <defs>
    <clipPath id="clip-Designation">
      <rect width="32" height="32"/>
    </clipPath>
  </defs>
  <g id="Designation" clip-path="url(#clip-Designation)">
    <rect width="32" height="32" fill="rgba(255,255,255,0)"/>
    <g id="employee_1_" data-name="employee (1)" transform="translate(5 5.047)">
      <path id="Path_8394" data-name="Path 8394" d="M8.837,9.675a4.837,4.837,0,1,1,4.837-4.837A4.843,4.843,0,0,1,8.837,9.675Z" transform="translate(-0.193)" fill="#009688"/>
      <path id="Path_8395" data-name="Path 8395" d="M4.6,12A4.6,4.6,0,0,0,0,16.6v3.386a.731.731,0,0,0,.726.726H9.675V17.563a3.634,3.634,0,0,1,3.106-3.58,3.721,3.721,0,0,1,1.335-1.8C13.148,11.907,13.1,12,4.6,12Z" transform="translate(0 -0.609)" fill="#009688"/>
      <path id="Path_8396" data-name="Path 8396" d="M21.933,15.919H20.724v-.726A1.7,1.7,0,0,0,19.03,13.5H16.612a1.7,1.7,0,0,0-1.693,1.693v.726H13.709a1.683,1.683,0,0,0-1.212.516l5.324,2.778,5.324-2.778A1.683,1.683,0,0,0,21.933,15.919Zm-5.563,0v-.726a.242.242,0,0,1,.242-.242H19.03a.242.242,0,0,1,.242.242v.726Z" transform="translate(-0.626 -0.603)" fill="#009688"/>
      <path id="Path_8397" data-name="Path 8397" d="M18.141,20.819a.726.726,0,0,1-.67,0L12,17.965v4.146A1.7,1.7,0,0,0,13.693,23.8h8.224a1.7,1.7,0,0,0,1.693-1.693V17.965Z" transform="translate(-0.61 -0.804)" fill="#009688"/>
    </g>
  </g>
</svg>
