<svg id="edit" xmlns="http://www.w3.org/2000/svg" width="21.416" height="21.416" viewBox="0 0 21.416 21.416">
  <g id="Group_4029" data-name="Group 4029" transform="translate(0 1.53)">
    <g id="Group_4028" data-name="Group 4028">
      <path id="Path_3004" data-name="Path 3004" d="M17.591,43.315a.765.765,0,0,0-.765.765v7.648a.765.765,0,0,1-.765.765H2.295a.765.765,0,0,1-.765-.765v-15.3a.765.765,0,0,1,.765-.765h9.178a.765.765,0,1,0,0-1.53H2.295A2.3,2.3,0,0,0,0,36.432v15.3a2.3,2.3,0,0,0,2.295,2.295H16.062a2.3,2.3,0,0,0,2.295-2.295V44.08A.765.765,0,0,0,17.591,43.315Z" transform="translate(0 -34.137)" fill="#bfbfbf"/>
    </g>
  </g>
  <g id="Group_4031" data-name="Group 4031" transform="translate(4.589 0)">
    <g id="Group_4030" data-name="Group 4030">
      <path id="Path_3005" data-name="Path 3005" d="M118.378.861a2.928,2.928,0,0,0-4.141,0L104.162,10.936a.773.773,0,0,0-.184.3l-1.53,4.589a.765.765,0,0,0,.725,1.007.777.777,0,0,0,.242-.039L108,15.262a.765.765,0,0,0,.3-.185L118.377,5A2.928,2.928,0,0,0,118.378.861ZM117.3,3.921l-9.943,9.943-2.971.992.989-2.967,9.947-9.943A1.4,1.4,0,1,1,117.3,3.921Z" transform="translate(-102.409 -0.004)" fill="#bfbfbf"/>
    </g>
  </g>
</svg>
