<svg xmlns="http://www.w3.org/2000/svg" xmlns:xlink="http://www.w3.org/1999/xlink" width="217.552" height="217.552" viewBox="0 0 217.552 217.552">
  <defs>
    <clipPath id="clip-path">
      <rect id="Rectangle_4463" data-name="Rectangle 4463" width="107" height="107" transform="translate(-9403 5509)" fill="#fff" stroke="#707070" stroke-width="1"/>
    </clipPath>
  </defs>
  <g id="Electric_meter_inactive_map_view" data-name="Electric meter inactive map view" transform="translate(-1518.712 -291.894)">
    <circle id="Ellipse_331" data-name="Ellipse 331" cx="102.072" cy="102.072" r="102.072" transform="translate(1525.416 298.598)" fill="#bfbfbf"/>
    <path id="Path_8404" data-name="Path 8404" d="M83.277,0A83.277,83.277,0,1,1,0,83.277,83.277,83.277,0,0,1,83.277,0Z" transform="translate(1544.212 317.393)" fill="#404040"/>
    <g id="Electric_Meter_Active" data-name="Electric Meter Active" transform="translate(10977.416 -5162.25)" clip-path="url(#clip-path)">
      <g id="power-meter" transform="translate(-9387.714 5517.899)">
        <path id="Path_8480" data-name="Path 8480" d="M41.938,61.616A41.451,41.451,0,0,1,10,46.59l0,15.026A3.194,3.194,0,0,0,13.2,64.81H70.681a3.194,3.194,0,0,0,3.194-3.194V46.595A41.447,41.447,0,0,1,41.938,61.616Z" transform="translate(-3.614 24.613)" fill="#bfbfbf"/>
        <path id="Path_8481" data-name="Path 8481" d="M28,18h6.387v6.387H28Z" transform="translate(7.13 7.549)" fill="#bfbfbf"/>
        <path id="Path_8482" data-name="Path 8482" d="M16,18h6.387v6.387H16Z" transform="translate(-0.032 7.549)" fill="#bfbfbf"/>
        <path id="Path_8483" data-name="Path 8483" d="M34,18h6.387v6.387H34Z" transform="translate(10.712 7.549)" fill="#bfbfbf"/>
        <path id="Path_8484" data-name="Path 8484" d="M40,18h6.389v6.387H40Z" transform="translate(14.293 7.549)" fill="#bfbfbf"/>
        <path id="Path_8485" data-name="Path 8485" d="M22,18h6.387v6.387H22Z" transform="translate(3.549 7.549)" fill="#bfbfbf"/>
        <path id="Path_8486" data-name="Path 8486" d="M11.5,31.545a1.483,1.483,0,0,0-.385,1.159,30.34,30.34,0,0,0,60.325,0,1.482,1.482,0,0,0-.385-1.158A1.63,1.63,0,0,0,69.839,31H12.714A1.63,1.63,0,0,0,11.5,31.545ZM35.158,44.479,41.545,34.9A1.6,1.6,0,1,1,44.2,36.67l-4.733,7.1h6.6A1.6,1.6,0,0,1,47.4,46.258l-6.387,9.581a1.6,1.6,0,0,1-2.657-1.772l4.733-7.1h-6.6a1.6,1.6,0,0,1-1.329-2.483Z" transform="translate(-2.953 15.308)" fill="#bfbfbf"/>
        <path id="Path_8487" data-name="Path 8487" d="M44.324,6A38.324,38.324,0,1,0,82.648,44.324,38.324,38.324,0,0,0,44.324,6ZM18.775,25.162a3.194,3.194,0,0,1,3.194-3.194H66.68a3.194,3.194,0,0,1,3.194,3.194v6.387a3.194,3.194,0,0,1-3.194,3.194H21.968a3.194,3.194,0,0,1-3.194-3.194ZM76.48,44.332a4.7,4.7,0,0,1,1.182,3.636,33.534,33.534,0,0,1-66.674,0,4.7,4.7,0,0,1,1.182-3.638,4.837,4.837,0,0,1,3.593-1.6H72.887a4.837,4.837,0,0,1,3.593,1.6Z" transform="translate(-6 0.387)" fill="#bfbfbf"/>
        <path id="Path_8488" data-name="Path 8488" d="M10,5.194V20.215a41.46,41.46,0,0,1,63.874,0V5.194A3.194,3.194,0,0,0,70.68,2H13.194A3.194,3.194,0,0,0,10,5.194Z" transform="translate(-3.613 -2)" fill="#bfbfbf"/>
      </g>
    </g>
  </g>
</svg>
