<svg xmlns="http://www.w3.org/2000/svg" width="60" height="60" viewBox="0 0 60 60">
  <g id="Floor_inactive" data-name="Floor inactive" transform="translate(-6216 -2307)">
    <g id="Path_8070" data-name="Path 8070" transform="translate(6216 2307)" fill="none">
      <path d="M30,0A30,30,0,1,1,0,30,30,30,0,0,1,30,0Z" stroke="none"/>
      <path d="M 30 2 C 26.21913909912109 2 22.55244064331055 2.740039825439453 19.10174942016602 4.199558258056641 C 15.76776885986328 5.609710693359375 12.77312850952148 7.628890991210938 10.20101165771484 10.20101165771484 C 7.628890991210938 12.77312850952148 5.609710693359375 15.76776885986328 4.199558258056641 19.10174942016602 C 2.740039825439453 22.55244064331055 2 26.21913909912109 2 30 C 2 33.78086090087891 2.740039825439453 37.44755935668945 4.199558258056641 40.89825057983398 C 5.609710693359375 44.23223114013672 7.628890991210938 47.22686767578125 10.20101165771484 49.79898834228516 C 12.77312850952148 52.37110900878906 15.76776885986328 54.39028930664062 19.10174942016602 55.80043792724609 C 22.55244064331055 57.25996017456055 26.21913909912109 58 30 58 C 33.78086090087891 58 37.44755935668945 57.25996017456055 40.89825057983398 55.80043792724609 C 44.23223114013672 54.39028930664062 47.22686767578125 52.37110900878906 49.79898834228516 49.79898834228516 C 52.37110900878906 47.22686767578125 54.39028930664062 44.23223114013672 55.80043792724609 40.89825057983398 C 57.25996017456055 37.44755935668945 58 33.78086090087891 58 30 C 58 26.21913909912109 57.25996017456055 22.55244064331055 55.80043792724609 19.10174942016602 C 54.39028930664062 15.76776885986328 52.37110900878906 12.77312850952148 49.79898834228516 10.20101165771484 C 47.22686767578125 7.628890991210938 44.23223114013672 5.609710693359375 40.89825057983398 4.199558258056641 C 37.44755935668945 2.740039825439453 33.78086090087891 2 30 2 M 30 0 C 46.56853866577148 0 60 13.43146133422852 60 30 C 60 46.56853866577148 46.56853866577148 60 30 60 C 13.43146133422852 60 0 46.56853866577148 0 30 C 0 13.43146133422852 13.43146133422852 0 30 0 Z" stroke="none" fill="#bfbfbf"/>
    </g>
    <g id="architecture" transform="translate(6194.44 2318.662)">
      <path id="Path_7974" data-name="Path 7974" d="M174.2,310.5h5.52v6.069H174.2Z" transform="translate(-129.457 -288.322)" fill="#bfbfbf"/>
      <path id="Path_7975" data-name="Path 7975" d="M77.138,310.5h5.52v6.069h-5.52Z" transform="translate(-39.575 -288.322)" fill="#bfbfbf"/>
      <path id="Path_7976" data-name="Path 7976" d="M368.325,310.5h5.52v6.069h-5.52Z" transform="translate(-309.62 -288.322)" fill="#bfbfbf"/>
      <path id="Path_7977" data-name="Path 7977" d="M271.263,310.5h5.52v6.069h-5.52Z" transform="translate(-219.709 -288.322)" fill="#bfbfbf"/>
      <path id="Path_7978" data-name="Path 7978" d="M77.138,207H103.8v6.068H77.138Z" transform="translate(-39.575 -192.215)" fill="#bfbfbf"/>
      <path id="Path_7979" data-name="Path 7979" d="M271.263,103.5h5.52v6.069h-5.52Z" transform="translate(-219.709 -96.107)" fill="#bfbfbf"/>
      <path id="Path_7980" data-name="Path 7980" d="M271.263,0h5.52V6.069h-5.52Z" transform="translate(-219.709 0)" fill="#bfbfbf"/>
      <path id="Path_7981" data-name="Path 7981" d="M368.325,103.5h5.52v6.069h-5.52Z" transform="translate(-309.62 -96.107)" fill="#bfbfbf"/>
      <path id="Path_7982" data-name="Path 7982" d="M372.742,0h-4.417V6.069h5.52V1.1a1.1,1.1,0,0,0-1.1-1.1Z" transform="translate(-309.62)" fill="#bfbfbf"/>
      <path id="Path_7983" data-name="Path 7983" d="M174.2,0h5.52V6.069H174.2Z" transform="translate(-129.457 0)" fill="#bfbfbf"/>
      <path id="Path_7984" data-name="Path 7984" d="M82.658,0H78.241a1.1,1.1,0,0,0-1.1,1.1V6.069h5.52Z" transform="translate(-39.575 0)" fill="#bfbfbf"/>
      <path id="Path_7985" data-name="Path 7985" d="M174.2,103.5h5.52v6.069H174.2Z" transform="translate(-129.457 -96.107)" fill="#bfbfbf"/>
      <path id="Path_7986" data-name="Path 7986" d="M77.138,103.5h5.52v6.069h-5.52Z" transform="translate(-39.575 -96.107)" fill="#bfbfbf"/>
      <path id="Path_7987" data-name="Path 7987" d="M65.9,419.819H63.789V414H59.1v5.815H56.765V414H52.072v5.815H49.741V414H45.048v5.815H42.717V414H38.024v5.815H36.058a1.294,1.294,0,0,0,0,2.554H65.9a1.294,1.294,0,0,0,0-2.554Z" transform="translate(0 -384.8)" fill="#bfbfbf"/>
    </g>
  </g>
</svg>
