<svg xmlns="http://www.w3.org/2000/svg" xmlns:xlink="http://www.w3.org/1999/xlink" width="180" height="180" viewBox="0 0 180 180">
  <defs>
    <clipPath id="clip-path">
      <rect id="Rectangle_4386" data-name="Rectangle 4386" width="180" height="180" transform="translate(-9202 5112)" fill="#fff" stroke="#707070" stroke-width="1"/>
    </clipPath>
  </defs>
  <g id="Gas_Meter_Active" data-name="Gas Meter Active" transform="translate(9202 -5112)" clip-path="url(#clip-path)">
    <g id="gas-bottle" transform="translate(-9164.778 5114.036)">
      <path id="Path_7563" data-name="Path 7563" d="M134.39,34.133H116.8A5.881,5.881,0,0,0,110.934,40v5.864a5.881,5.881,0,0,0,5.864,5.864H134.39a5.881,5.881,0,0,0,5.864-5.864V40A5.881,5.881,0,0,0,134.39,34.133Zm0,11.728H116.8V40H134.39Zm0,0" transform="translate(-72.816 -22.404)" fill="#fff"/>
      <path id="Path_7564" data-name="Path 7564" d="M70.371,0H35.185a8.823,8.823,0,0,0-8.8,8.8V35.714A32.3,32.3,0,0,0,0,67.439v64.507a32.252,32.252,0,0,0,14.661,27.034v5.22a11.728,11.728,0,0,0,11.728,11.728H79.167A11.729,11.729,0,0,0,90.9,164.2v-5.22a32.251,32.251,0,0,0,14.66-27.034V67.439A32.3,32.3,0,0,0,79.167,35.714V8.8A8.822,8.822,0,0,0,70.371,0ZM32.254,8.8a2.932,2.932,0,0,1,2.931-2.933H70.371A2.932,2.932,0,0,1,73.3,8.8V35.185H32.254ZM34.1,100.514a3.225,3.225,0,0,1,3.782-.322,3.077,3.077,0,0,1,1.232,3.605,4.223,4.223,0,0,0-.205,3.138c.176.264.82.557,2.139.557.91,0,1.76,0,1.76-2.639a11.8,11.8,0,0,0-2.082-4.721,21.094,21.094,0,0,1-3.782-10.849c0-8.063,4.926-20.555,15.481-21.815a3.257,3.257,0,0,1,2.287,5.894,5.111,5.111,0,0,0-2.521,3.7c0,4.4,4.545,8.063,9.822,12.315,7.653,6.127,17.152,13.781,17.152,27.707,0,12.99-9.852,20.731-26.388,20.731s-26.389-7.741-26.389-20.731A23.9,23.9,0,0,1,34.1,100.514Zm45.185,63.129c.468-.089.968-.205,1.466-.322s.968-.235,1.436-.381a11.85,11.85,0,0,0,1.438-.44c.468-.146.938-.322,1.407-.5v2.2a5.881,5.881,0,0,1-5.864,5.864H26.389a5.881,5.881,0,0,1-5.864-5.864V162c.468.177.938.353,1.407.5a11.924,11.924,0,0,0,1.438.44c.468.146.968.263,1.436.381s1,.234,1.466.322a31.506,31.506,0,0,0,5.982.557H73.3A31.5,31.5,0,0,0,79.285,163.642Zm0,0" fill="#fff"/>
      <path id="Path_7565" data-name="Path 7565" d="M114.392,280.77c7.652,0,20.524-1.935,20.524-14.866,0-11.112-7.594-17.241-14.954-23.135-5.923-4.778-11.552-9.295-11.993-16.038a21.411,21.411,0,0,0-3.547,11.377,15.781,15.781,0,0,0,2.962,7.859,15.465,15.465,0,0,1,2.9,7.711,7.494,7.494,0,0,1-7.624,8.5,7.933,7.933,0,0,1-6.919-2.99.646.646,0,0,0-.117-.146,15.217,15.217,0,0,0-1.76,6.86C93.867,278.834,106.739,280.77,114.392,280.77Zm0,0" transform="translate(-61.614 -148.824)" fill="#fff"/>
    </g>
  </g>
</svg>
