<svg xmlns="http://www.w3.org/2000/svg" xmlns:xlink="http://www.w3.org/1999/xlink" width="217.552" height="217.552" viewBox="0 0 217.552 217.552">
  <defs>
    <clipPath id="clip-path">
      <rect id="Rectangle_4467" data-name="Rectangle 4467" width="94" height="94" transform="translate(1957 2693)" fill="#bfbfbf" stroke="#707070" stroke-width="1"/>
    </clipPath>
  </defs>
  <g id="Smart_Lighting_inactive_map_view" data-name="Smart Lighting inactive map view" transform="translate(-1518.712 -291.894)">
    <circle id="Ellipse_331" data-name="Ellipse 331" cx="102.072" cy="102.072" r="102.072" transform="translate(1525.416 298.598)" fill="#bfbfbf"/>
    <path id="Path_8404" data-name="Path 8404" d="M83.277,0A83.277,83.277,0,1,1,0,83.277,83.277,83.277,0,0,1,83.277,0Z" transform="translate(1544.212 317.393)" fill="#404040"/>
    <g id="Smart_Lighting_Active" data-name="Smart Lighting Active" transform="translate(-377.012 -2339.33)" clip-path="url(#clip-path)">
      <g id="Group_34142" data-name="Group 34142" transform="translate(1966.754 2693)">
        <g id="street-light" transform="translate(0 0)">
          <path id="Path_7990" data-name="Path 7990" d="M54.63,159H31.877A4.882,4.882,0,0,0,27,163.877v6.5A1.626,1.626,0,0,0,28.626,172H57.881a1.626,1.626,0,0,0,1.626-1.626v-6.5A4.882,4.882,0,0,0,54.63,159Z" transform="translate(-27 -77.731)" fill="#bfbfbf"/>
          <path id="Path_7991" data-name="Path 7991" d="M58.256,78.89a8.141,8.141,0,0,0-6.5-7.963V33.381a21.154,21.154,0,0,1,21.127-21.13H97.262V10.626A1.626,1.626,0,0,0,95.636,9H72.881A24.408,24.408,0,0,0,48.5,33.381V70.929A8.141,8.141,0,0,0,42,78.89v8.128H58.256Z" transform="translate(-33.872 -9)" fill="#bfbfbf"/>
          <path id="Path_7992" data-name="Path 7992" d="M123,52.626v3.251a1.626,1.626,0,1,0,3.251,0V52.626a1.626,1.626,0,1,0-3.251,0Z" transform="translate(-70.989 -28.244)" fill="#bfbfbf"/>
          <path id="Path_7993" data-name="Path 7993" d="M135.9,48.17a1.626,1.626,0,0,0-.727,2.18L136.8,53.6a1.626,1.626,0,0,0,2.907-1.455L138.078,48.9a1.628,1.628,0,0,0-2.18-.725Z" transform="translate(-76.487 -26.87)" fill="#bfbfbf"/>
          <path id="Path_7994" data-name="Path 7994" d="M109.8,48.9l-1.626,3.251a1.626,1.626,0,0,0,2.907,1.455l1.626-3.251A1.626,1.626,0,1,0,109.8,48.9Z" transform="translate(-64.114 -26.87)" fill="#bfbfbf"/>
          <path id="Path_7995" data-name="Path 7995" d="M108.13,75a21.13,21.13,0,1,0,21.13,21.13A21.13,21.13,0,0,0,108.13,75Zm0,34.132a1.626,1.626,0,1,1,1.626-1.626A1.626,1.626,0,0,1,108.13,109.132Zm4.6-5.548a1.626,1.626,0,0,1-2.3,0,3.328,3.328,0,0,0-4.6,0,1.626,1.626,0,0,1-2.3-2.3,6.662,6.662,0,0,1,9.194,0,1.626,1.626,0,0,1,0,2.3Zm4.6-4.6a1.626,1.626,0,0,1-2.3,0,9.77,9.77,0,0,0-13.793,0,1.626,1.626,0,0,1-2.3-2.3,13.018,13.018,0,0,1,18.388,0,1.626,1.626,0,0,1,0,2.3Zm4.586-4.6a1.626,1.626,0,0,1-2.3,0,16.275,16.275,0,0,0-22.987,0,1.626,1.626,0,0,1-2.3-2.3,19.523,19.523,0,0,1,27.584,0A1.626,1.626,0,0,1,121.91,94.387Z" transform="translate(-54.494 -39.242)" fill="#bfbfbf"/>
          <path id="Path_7996" data-name="Path 7996" d="M127.5,21H108v3.251a9.752,9.752,0,0,0,19.5,0Z" transform="translate(-64.115 -14.498)" fill="#bfbfbf"/>
        </g>
      </g>
    </g>
  </g>
</svg>
