<svg xmlns="http://www.w3.org/2000/svg" width="18" height="24" viewBox="0 0 18 24">
  <g id="light-bulb" transform="translate(-105.035 -109)">
    <path id="Path_99" data-name="Path 99" d="M204.035,398.153a2,2,0,0,0,2,2h1.374a2,2,0,0,0,2-2C209.405,393.994,204.033,393.991,204.035,398.153Z" transform="translate(-92.685 -268.15)" fill="#fff"/>
    <path id="Path_102" data-name="Path 102" d="M209.405,390v3.434a2,2,0,0,1-2,2h-1.374a2,2,0,0,1-2-2V390Z" transform="translate(-92.685 -263.432)" fill="#fff"/>
    <path id="Path_104" data-name="Path 104" d="M114.035,109a8.968,8.968,0,0,0-9,8.875,8.853,8.853,0,0,0,4.741,7.82.983.983,0,0,1,.52.873V130a3.025,3.025,0,0,0,3.042,3h1.394a3.025,3.025,0,0,0,3.042-3v-3.432a1.007,1.007,0,0,1,.542-.885A8.855,8.855,0,0,0,114.035,109Zm.7,22h-1.394a1.008,1.008,0,0,1-1.014-1v-2.438h3.423V130A1.008,1.008,0,0,1,114.732,131Zm2.618-7.076a3.031,3.031,0,0,0-1.427,1.638h-3.774a2.98,2.98,0,0,0-1.412-1.629,6.859,6.859,0,0,1-3.674-6.059,6.973,6.973,0,0,1,13.944,0,6.862,6.862,0,0,1-3.657,6.049Z" transform="translate(0)" fill="#fff"/>
  </g>
</svg>
