<svg xmlns="http://www.w3.org/2000/svg" width="31.911" height="22.945" viewBox="0 0 31.911 22.945">
  <path id="Path_5009" data-name="Path 5009" d="M122.451,230.114v-19.6a1.907,1.907,0,0,0-.057-.568,1.42,1.42,0,0,0-1.367-.988c-.292,0-.579,0-.871,0H92.075c-.083,0-.163,0-.242.008a1.408,1.408,0,0,0-1.287,1.412c0,.386,0,.769,0,1.155v18.26a3.166,3.166,0,0,0,.133,1.306,1.4,1.4,0,0,0,1.295.8H121.1a1.411,1.411,0,0,0,1.352-1.416ZM98.065,214.7a3.6,3.6,0,0,1,3.949-1.064,3.658,3.658,0,0,1,2.4,3.373v.042a3.6,3.6,0,1,1-6.345-2.351Zm7.966,12.74H95.589a.762.762,0,0,1-.757-.757V226.6a4.856,4.856,0,0,1,2.014-3.813,4.934,4.934,0,0,1,2.961-.871h2.15a4.854,4.854,0,0,1,3.248,1.223,4.782,4.782,0,0,1,1.575,3.536A.76.76,0,0,1,106.031,227.437Zm11.332-3.12h-7.216a.757.757,0,0,1,0-1.514h7.216a.757.757,0,1,1,0,1.514Zm0-6.262h-9.041a.757.757,0,1,1,0-1.514h9.041a.757.757,0,1,1,0,1.514Z" transform="translate(-90.54 -208.956)" fill="#bfbfbf"/>
</svg>
