<svg xmlns="http://www.w3.org/2000/svg" width="60" height="60" viewBox="0 0 60 60">
  <g id="Pole_active" data-name="Pole active" transform="translate(-992 -218)">
    <g id="Group_34133" data-name="Group 34133" transform="translate(-5224 -2089)">
      <g id="Ellipse_74" data-name="Ellipse 74" transform="translate(6216 2307)" fill="none" stroke="#059488" stroke-width="2">
        <circle cx="30" cy="30" r="30" stroke="none"/>
        <circle cx="30" cy="30" r="29" fill="none"/>
      </g>
    </g>
    <g id="street-light" transform="translate(998.972 227.313)">
      <path id="Path_7990" data-name="Path 7990" d="M19.368,53H10.83A1.832,1.832,0,0,0,9,54.83v2.44a.61.61,0,0,0,.61.61H20.588a.61.61,0,0,0,.61-.61V54.83A1.832,1.832,0,0,0,19.368,53Z" transform="translate(0 -19.504)" fill="#059488"/>
      <path id="Path_7991" data-name="Path 7991" d="M20.1,29.226a3.055,3.055,0,0,0-2.44-2.988V12.149A7.938,7.938,0,0,1,25.588,4.22h9.149V3.61a.61.61,0,0,0-.61-.61H25.588a9.159,9.159,0,0,0-9.149,9.149v14.09A3.055,3.055,0,0,0,14,29.226v3.05h6.1Z" transform="translate(-1.95 0)" fill="#059488"/>
      <path id="Path_7992" data-name="Path 7992" d="M41,17.61v1.22a.61.61,0,1,0,1.22,0V17.61a.61.61,0,1,0-1.22,0Z" transform="translate(-12.483 -5.461)" fill="#059488"/>
      <path id="Path_7993" data-name="Path 7993" d="M45.337,16.064a.61.61,0,0,0-.273.818l.61,1.22a.61.61,0,1,0,1.091-.546l-.61-1.22A.611.611,0,0,0,45.337,16.064Z" transform="translate(-14.043 -5.071)" fill="#059488"/>
      <path id="Path_7994" data-name="Path 7994" d="M36.674,16.337l-.61,1.22a.61.61,0,0,0,1.091.546l.61-1.22a.61.61,0,1,0-1.091-.546Z" transform="translate(-10.532 -5.071)" fill="#059488"/>
      <path id="Path_7995" data-name="Path 7995" d="M36.929,25a7.929,7.929,0,1,0,7.929,7.929A7.929,7.929,0,0,0,36.929,25Zm0,12.808a.61.61,0,1,1,.61-.61A.61.61,0,0,1,36.929,37.808Zm1.725-2.082a.61.61,0,0,1-.862,0,1.249,1.249,0,0,0-1.725,0,.61.61,0,0,1-.862-.862,2.5,2.5,0,0,1,3.45,0A.61.61,0,0,1,38.654,35.726ZM40.379,34a.61.61,0,0,1-.862,0,3.666,3.666,0,0,0-5.176,0,.61.61,0,0,1-.862-.862,4.885,4.885,0,0,1,6.9,0A.61.61,0,0,1,40.379,34ZM42.1,32.275a.61.61,0,0,1-.862,0,6.107,6.107,0,0,0-8.626,0,.61.61,0,0,1-.862-.862,7.326,7.326,0,0,1,10.351,0A.61.61,0,0,1,42.1,32.275Z" transform="translate(-7.802 -8.582)" fill="#059488"/>
      <path id="Path_7996" data-name="Path 7996" d="M43.319,7H36V8.22a3.659,3.659,0,1,0,7.319,0Z" transform="translate(-10.532 -1.56)" fill="#059488"/>
    </g>
  </g>
</svg>
