<svg xmlns="http://www.w3.org/2000/svg" width="18" height="20" viewBox="0 0 18 20">
  <g id="turn-off" transform="translate(-21.331)">
    <g id="Group_73" data-name="Group 73" transform="translate(21.331)">
      <g id="Group_72" data-name="Group 72" transform="translate(0)">
        <path id="Path_53" data-name="Path 53" d="M33.93,60.476a.812.812,0,0,0-1.077.431.841.841,0,0,0,.422,1.1,7.519,7.519,0,0,1,4.419,6.887,7.365,7.365,0,1,1-14.727,0,7.521,7.521,0,0,1,4.418-6.887.841.841,0,0,0,.422-1.1.812.812,0,0,0-1.077-.43,9.192,9.192,0,0,0-5.4,8.416,9,9,0,1,0,18,0A9.19,9.19,0,0,0,33.93,60.476Z" transform="translate(-21.331 -58.074)" fill="#fff"/>
        <path id="Path_54" data-name="Path 54" d="M235.48,9.062a.824.824,0,0,0,.824-.824V.824a.824.824,0,1,0-1.648,0V8.238A.824.824,0,0,0,235.48,9.062Z" transform="translate(-226.48)" fill="#fff"/>
      </g>
    </g>
  </g>
</svg>
