<svg xmlns="http://www.w3.org/2000/svg" xmlns:xlink="http://www.w3.org/1999/xlink" width="52" height="52" viewBox="0 0 52 52">
  <defs>
    <clipPath id="clip-path">
      <rect id="Rectangle_16822" data-name="Rectangle 16822" width="52" height="52" transform="translate(17 362)" fill="#fff" stroke="#707070" stroke-width="1"/>
    </clipPath>
  </defs>
  <g id="User_Settings_active" data-name="User Settings active" transform="translate(-17 -362)" clip-path="url(#clip-path)">
    <g id="profile" transform="translate(17.225 362)">
      <circle id="Ellipse_76" data-name="Ellipse 76" cx="11.29" cy="11.29" r="11.29" transform="translate(9.032)" fill="#fff"/>
      <path id="Path_8047" data-name="Path 8047" d="M26.045,36.567a5.66,5.66,0,0,1,.458-6.323,5.66,5.66,0,0,1-.458-6.323l1.827-3.161a5.662,5.662,0,0,1,4.891-2.823,5.749,5.749,0,0,1,.815.059,5.862,5.862,0,0,1,.262-.535,10.651,10.651,0,0,0-3.92-.765H10.726A10.738,10.738,0,0,0,0,27.421v7.9a1.694,1.694,0,0,0,1.694,1.694H26.3Z" transform="translate(0 10.401)" fill="#fff"/>
      <path id="Path_8048" data-name="Path 8048" d="M37.566,30.436a8.206,8.206,0,0,0,.106-1.059,8.581,8.581,0,0,0-.106-1.059l2.035-1.54a1.13,1.13,0,0,0,.3-1.465L38.07,22.151a1.129,1.129,0,0,0-1.416-.476l-2.342.987a8.389,8.389,0,0,0-1.849-1.1l-.312-2.486a1.131,1.131,0,0,0-1.12-.989H27.38a1.129,1.129,0,0,0-1.12.989l-.312,2.486a8.425,8.425,0,0,0-1.849,1.1l-2.342-.987a1.127,1.127,0,0,0-1.416.476l-1.827,3.161a1.131,1.131,0,0,0,.3,1.465l2.035,1.54a8.207,8.207,0,0,0-.106,1.059,8.583,8.583,0,0,0,.106,1.059l-2.035,1.54a1.13,1.13,0,0,0-.3,1.465l1.827,3.164a1.129,1.129,0,0,0,1.416.476l2.342-.989a8.389,8.389,0,0,0,1.849,1.1l.312,2.486a1.127,1.127,0,0,0,1.118.989h3.651a1.129,1.129,0,0,0,1.12-.989l.312-2.486a8.425,8.425,0,0,0,1.849-1.1l2.342.987a1.127,1.127,0,0,0,1.416-.476l1.827-3.164a1.131,1.131,0,0,0-.3-1.465ZM29.2,33.893a4.516,4.516,0,1,1,4.516-4.516A4.515,4.515,0,0,1,29.2,33.893Z" transform="translate(11.44 11.268)" fill="#fff"/>
    </g>
  </g>
</svg>
